ISO-10303-21;
HEADER;
FILE_DESCRIPTION(('Open CASCADE Model'),'2;1');
FILE_NAME('Open CASCADE Shape Model','2026-06-30T21:17:35',('Author'),(
    'Open CASCADE'),'Open CASCADE STEP processor 7.9','build123d',
  'Unknown');
FILE_SCHEMA(('AUTOMOTIVE_DESIGN { 1 0 10303 214 1 1 1 1 }'));
ENDSEC;
DATA;
#1 = APPLICATION_PROTOCOL_DEFINITION('international standard',
  'automotive_design',2000,#2);
#2 = APPLICATION_CONTEXT(
  'core data for automotive mechanical design processes');
#3 = SHAPE_DEFINITION_REPRESENTATION(#4,#10);
#4 = PRODUCT_DEFINITION_SHAPE('','',#5);
#5 = PRODUCT_DEFINITION('design','',#6,#9);
#6 = PRODUCT_DEFINITION_FORMATION('','',#7);
#7 = PRODUCT('COMPOUND','COMPOUND','',(#8));
#8 = PRODUCT_CONTEXT('',#2,'mechanical');
#9 = PRODUCT_DEFINITION_CONTEXT('part definition',#2,'design');
#10 = ADVANCED_BREP_SHAPE_REPRESENTATION('',(#11,#15),#1505);
#11 = AXIS2_PLACEMENT_3D('',#12,#13,#14);
#12 = CARTESIAN_POINT('',(0.,0.,0.));
#13 = DIRECTION('',(0.,0.,1.));
#14 = DIRECTION('',(1.,0.,-0.));
#15 = MANIFOLD_SOLID_BREP('',#16);
#16 = CLOSED_SHELL('',(#17,#137,#265,#485,#599,#767,#1043,#1072,#1099,
    #1205,#1417,#1444,#1469,#1476));
#17 = ADVANCED_FACE('',(#18),#32,.F.);
#18 = FACE_BOUND('',#19,.F.);
#19 = EDGE_LOOP('',(#20,#55,#83,#111));
#20 = ORIENTED_EDGE('',*,*,#21,.F.);
#21 = EDGE_CURVE('',#22,#24,#26,.T.);
#22 = VERTEX_POINT('',#23);
#23 = CARTESIAN_POINT('',(-20.5,-11.5,-13.5));
#24 = VERTEX_POINT('',#25);
#25 = CARTESIAN_POINT('',(-20.5,-11.5,13.5));
#26 = SURFACE_CURVE('',#27,(#31,#43),.PCURVE_S1.);
#27 = LINE('',#28,#29);
#28 = CARTESIAN_POINT('',(-20.5,-11.5,-13.5));
#29 = VECTOR('',#30,1.);
#30 = DIRECTION('',(0.,0.,1.));
#31 = PCURVE('',#32,#37);
#32 = PLANE('',#33);
#33 = AXIS2_PLACEMENT_3D('',#34,#35,#36);
#34 = CARTESIAN_POINT('',(-20.5,-11.5,-13.5));
#35 = DIRECTION('',(1.,0.,-0.));
#36 = DIRECTION('',(0.,0.,1.));
#37 = DEFINITIONAL_REPRESENTATION('',(#38),#42);
#38 = LINE('',#39,#40);
#39 = CARTESIAN_POINT('',(0.,0.));
#40 = VECTOR('',#41,1.);
#41 = DIRECTION('',(1.,0.));
#42 = ( GEOMETRIC_REPRESENTATION_CONTEXT(2) 
PARAMETRIC_REPRESENTATION_CONTEXT() REPRESENTATION_CONTEXT('2D SPACE',''
  ) );
#43 = PCURVE('',#44,#49);
#44 = PLANE('',#45);
#45 = AXIS2_PLACEMENT_3D('',#46,#47,#48);
#46 = CARTESIAN_POINT('',(-20.5,-11.5,-13.5));
#47 = DIRECTION('',(-0.,1.,0.));
#48 = DIRECTION('',(0.,0.,1.));
#49 = DEFINITIONAL_REPRESENTATION('',(#50),#54);
#50 = LINE('',#51,#52);
#51 = CARTESIAN_POINT('',(0.,0.));
#52 = VECTOR('',#53,1.);
#53 = DIRECTION('',(1.,0.));
#54 = ( GEOMETRIC_REPRESENTATION_CONTEXT(2) 
PARAMETRIC_REPRESENTATION_CONTEXT() REPRESENTATION_CONTEXT('2D SPACE',''
  ) );
#55 = ORIENTED_EDGE('',*,*,#56,.T.);
#56 = EDGE_CURVE('',#22,#57,#59,.T.);
#57 = VERTEX_POINT('',#58);
#58 = CARTESIAN_POINT('',(-20.5,11.5,-13.5));
#59 = SURFACE_CURVE('',#60,(#64,#71),.PCURVE_S1.);
#60 = LINE('',#61,#62);
#61 = CARTESIAN_POINT('',(-20.5,-11.5,-13.5));
#62 = VECTOR('',#63,1.);
#63 = DIRECTION('',(-0.,1.,0.));
#64 = PCURVE('',#32,#65);
#65 = DEFINITIONAL_REPRESENTATION('',(#66),#70);
#66 = LINE('',#67,#68);
#67 = CARTESIAN_POINT('',(0.,0.));
#68 = VECTOR('',#69,1.);
#69 = DIRECTION('',(0.,-1.));
#70 = ( GEOMETRIC_REPRESENTATION_CONTEXT(2) 
PARAMETRIC_REPRESENTATION_CONTEXT() REPRESENTATION_CONTEXT('2D SPACE',''
  ) );
#71 = PCURVE('',#72,#77);
#72 = PLANE('',#73);
#73 = AXIS2_PLACEMENT_3D('',#74,#75,#76);
#74 = CARTESIAN_POINT('',(-20.5,-11.5,-13.5));
#75 = DIRECTION('',(0.,0.,1.));
#76 = DIRECTION('',(1.,0.,-0.));
#77 = DEFINITIONAL_REPRESENTATION('',(#78),#82);
#78 = LINE('',#79,#80);
#79 = CARTESIAN_POINT('',(0.,0.));
#80 = VECTOR('',#81,1.);
#81 = DIRECTION('',(0.,1.));
#82 = ( GEOMETRIC_REPRESENTATION_CONTEXT(2) 
PARAMETRIC_REPRESENTATION_CONTEXT() REPRESENTATION_CONTEXT('2D SPACE',''
  ) );
#83 = ORIENTED_EDGE('',*,*,#84,.T.);
#84 = EDGE_CURVE('',#57,#85,#87,.T.);
#85 = VERTEX_POINT('',#86);
#86 = CARTESIAN_POINT('',(-20.5,11.5,13.5));
#87 = SURFACE_CURVE('',#88,(#92,#99),.PCURVE_S1.);
#88 = LINE('',#89,#90);
#89 = CARTESIAN_POINT('',(-20.5,11.5,-13.5));
#90 = VECTOR('',#91,1.);
#91 = DIRECTION('',(0.,0.,1.));
#92 = PCURVE('',#32,#93);
#93 = DEFINITIONAL_REPRESENTATION('',(#94),#98);
#94 = LINE('',#95,#96);
#95 = CARTESIAN_POINT('',(0.,-23.));
#96 = VECTOR('',#97,1.);
#97 = DIRECTION('',(1.,0.));
#98 = ( GEOMETRIC_REPRESENTATION_CONTEXT(2) 
PARAMETRIC_REPRESENTATION_CONTEXT() REPRESENTATION_CONTEXT('2D SPACE',''
  ) );
#99 = PCURVE('',#100,#105);
#100 = PLANE('',#101);
#101 = AXIS2_PLACEMENT_3D('',#102,#103,#104);
#102 = CARTESIAN_POINT('',(-20.5,11.5,-13.5));
#103 = DIRECTION('',(-0.,1.,0.));
#104 = DIRECTION('',(0.,0.,1.));
#105 = DEFINITIONAL_REPRESENTATION('',(#106),#110);
#106 = LINE('',#107,#108);
#107 = CARTESIAN_POINT('',(0.,0.));
#108 = VECTOR('',#109,1.);
#109 = DIRECTION('',(1.,0.));
#110 = ( GEOMETRIC_REPRESENTATION_CONTEXT(2) 
PARAMETRIC_REPRESENTATION_CONTEXT() REPRESENTATION_CONTEXT('2D SPACE',''
  ) );
#111 = ORIENTED_EDGE('',*,*,#112,.F.);
#112 = EDGE_CURVE('',#24,#85,#113,.T.);
#113 = SURFACE_CURVE('',#114,(#118,#125),.PCURVE_S1.);
#114 = LINE('',#115,#116);
#115 = CARTESIAN_POINT('',(-20.5,-11.5,13.5));
#116 = VECTOR('',#117,1.);
#117 = DIRECTION('',(-0.,1.,0.));
#118 = PCURVE('',#32,#119);
#119 = DEFINITIONAL_REPRESENTATION('',(#120),#124);
#120 = LINE('',#121,#122);
#121 = CARTESIAN_POINT('',(27.,0.));
#122 = VECTOR('',#123,1.);
#123 = DIRECTION('',(0.,-1.));
#124 = ( GEOMETRIC_REPRESENTATION_CONTEXT(2) 
PARAMETRIC_REPRESENTATION_CONTEXT() REPRESENTATION_CONTEXT('2D SPACE',''
  ) );
#125 = PCURVE('',#126,#131);
#126 = PLANE('',#127);
#127 = AXIS2_PLACEMENT_3D('',#128,#129,#130);
#128 = CARTESIAN_POINT('',(-20.5,-11.5,13.5));
#129 = DIRECTION('',(0.,0.,1.));
#130 = DIRECTION('',(1.,0.,-0.));
#131 = DEFINITIONAL_REPRESENTATION('',(#132),#136);
#132 = LINE('',#133,#134);
#133 = CARTESIAN_POINT('',(0.,0.));
#134 = VECTOR('',#135,1.);
#135 = DIRECTION('',(0.,1.));
#136 = ( GEOMETRIC_REPRESENTATION_CONTEXT(2) 
PARAMETRIC_REPRESENTATION_CONTEXT() REPRESENTATION_CONTEXT('2D SPACE',''
  ) );
#137 = ADVANCED_FACE('',(#138),#44,.F.);
#138 = FACE_BOUND('',#139,.F.);
#139 = EDGE_LOOP('',(#140,#168,#189,#190,#213,#234));
#140 = ORIENTED_EDGE('',*,*,#141,.F.);
#141 = EDGE_CURVE('',#142,#144,#146,.T.);
#142 = VERTEX_POINT('',#143);
#143 = CARTESIAN_POINT('',(-10.5,-11.5,-13.5));
#144 = VERTEX_POINT('',#145);
#145 = CARTESIAN_POINT('',(-10.5,-11.5,-1.145643923739));
#146 = SURFACE_CURVE('',#147,(#151,#157),.PCURVE_S1.);
#147 = LINE('',#148,#149);
#148 = CARTESIAN_POINT('',(-10.5,-11.5,-14.5));
#149 = VECTOR('',#150,1.);
#150 = DIRECTION('',(0.,0.,1.));
#151 = PCURVE('',#44,#152);
#152 = DEFINITIONAL_REPRESENTATION('',(#153),#156);
#153 = B_SPLINE_CURVE_WITH_KNOTS('',1,(#154,#155),.UNSPECIFIED.,.F.,.F.,
  (2,2),(-5.999999999062E-07,29.0000006),.PIECEWISE_BEZIER_KNOTS.);
#154 = CARTESIAN_POINT('',(-1.0000006,10.));
#155 = CARTESIAN_POINT('',(28.0000006,10.));
#156 = ( GEOMETRIC_REPRESENTATION_CONTEXT(2) 
PARAMETRIC_REPRESENTATION_CONTEXT() REPRESENTATION_CONTEXT('2D SPACE',''
  ) );
#157 = PCURVE('',#158,#163);
#158 = CYLINDRICAL_SURFACE('',#159,2.5);
#159 = AXIS2_PLACEMENT_3D('',#160,#161,#162);
#160 = CARTESIAN_POINT('',(-8.,-11.5,-14.5));
#161 = DIRECTION('',(0.,0.,1.));
#162 = DIRECTION('',(1.,0.,-0.));
#163 = DEFINITIONAL_REPRESENTATION('',(#164),#167);
#164 = B_SPLINE_CURVE_WITH_KNOTS('',1,(#165,#166),.UNSPECIFIED.,.F.,.F.,
  (2,2),(-5.999999999062E-07,29.0000006),.PIECEWISE_BEZIER_KNOTS.);
#165 = CARTESIAN_POINT('',(3.14159265359,-5.999999999062E-07));
#166 = CARTESIAN_POINT('',(3.14159265359,29.0000006));
#167 = ( GEOMETRIC_REPRESENTATION_CONTEXT(2) 
PARAMETRIC_REPRESENTATION_CONTEXT() REPRESENTATION_CONTEXT('2D SPACE',''
  ) );
#168 = ORIENTED_EDGE('',*,*,#169,.F.);
#169 = EDGE_CURVE('',#22,#142,#170,.T.);
#170 = SURFACE_CURVE('',#171,(#175,#182),.PCURVE_S1.);
#171 = LINE('',#172,#173);
#172 = CARTESIAN_POINT('',(-20.5,-11.5,-13.5));
#173 = VECTOR('',#174,1.);
#174 = DIRECTION('',(1.,0.,-0.));
#175 = PCURVE('',#44,#176);
#176 = DEFINITIONAL_REPRESENTATION('',(#177),#181);
#177 = LINE('',#178,#179);
#178 = CARTESIAN_POINT('',(0.,0.));
#179 = VECTOR('',#180,1.);
#180 = DIRECTION('',(0.,1.));
#181 = ( GEOMETRIC_REPRESENTATION_CONTEXT(2) 
PARAMETRIC_REPRESENTATION_CONTEXT() REPRESENTATION_CONTEXT('2D SPACE',''
  ) );
#182 = PCURVE('',#72,#183);
#183 = DEFINITIONAL_REPRESENTATION('',(#184),#188);
#184 = LINE('',#185,#186);
#185 = CARTESIAN_POINT('',(0.,0.));
#186 = VECTOR('',#187,1.);
#187 = DIRECTION('',(1.,0.));
#188 = ( GEOMETRIC_REPRESENTATION_CONTEXT(2) 
PARAMETRIC_REPRESENTATION_CONTEXT() REPRESENTATION_CONTEXT('2D SPACE',''
  ) );
#189 = ORIENTED_EDGE('',*,*,#21,.T.);
#190 = ORIENTED_EDGE('',*,*,#191,.T.);
#191 = EDGE_CURVE('',#24,#192,#194,.T.);
#192 = VERTEX_POINT('',#193);
#193 = CARTESIAN_POINT('',(-10.5,-11.5,13.5));
#194 = SURFACE_CURVE('',#195,(#199,#206),.PCURVE_S1.);
#195 = LINE('',#196,#197);
#196 = CARTESIAN_POINT('',(-20.5,-11.5,13.5));
#197 = VECTOR('',#198,1.);
#198 = DIRECTION('',(1.,0.,-0.));
#199 = PCURVE('',#44,#200);
#200 = DEFINITIONAL_REPRESENTATION('',(#201),#205);
#201 = LINE('',#202,#203);
#202 = CARTESIAN_POINT('',(27.,0.));
#203 = VECTOR('',#204,1.);
#204 = DIRECTION('',(0.,1.));
#205 = ( GEOMETRIC_REPRESENTATION_CONTEXT(2) 
PARAMETRIC_REPRESENTATION_CONTEXT() REPRESENTATION_CONTEXT('2D SPACE',''
  ) );
#206 = PCURVE('',#126,#207);
#207 = DEFINITIONAL_REPRESENTATION('',(#208),#212);
#208 = LINE('',#209,#210);
#209 = CARTESIAN_POINT('',(0.,0.));
#210 = VECTOR('',#211,1.);
#211 = DIRECTION('',(1.,0.));
#212 = ( GEOMETRIC_REPRESENTATION_CONTEXT(2) 
PARAMETRIC_REPRESENTATION_CONTEXT() REPRESENTATION_CONTEXT('2D SPACE',''
  ) );
#213 = ORIENTED_EDGE('',*,*,#214,.F.);
#214 = EDGE_CURVE('',#215,#192,#217,.T.);
#215 = VERTEX_POINT('',#216);
#216 = CARTESIAN_POINT('',(-10.5,-11.5,1.145643923739));
#217 = SURFACE_CURVE('',#218,(#222,#228),.PCURVE_S1.);
#218 = LINE('',#219,#220);
#219 = CARTESIAN_POINT('',(-10.5,-11.5,-14.5));
#220 = VECTOR('',#221,1.);
#221 = DIRECTION('',(0.,0.,1.));
#222 = PCURVE('',#44,#223);
#223 = DEFINITIONAL_REPRESENTATION('',(#224),#227);
#224 = B_SPLINE_CURVE_WITH_KNOTS('',1,(#225,#226),.UNSPECIFIED.,.F.,.F.,
  (2,2),(-5.999999999062E-07,29.0000006),.PIECEWISE_BEZIER_KNOTS.);
#225 = CARTESIAN_POINT('',(-1.0000006,10.));
#226 = CARTESIAN_POINT('',(28.0000006,10.));
#227 = ( GEOMETRIC_REPRESENTATION_CONTEXT(2) 
PARAMETRIC_REPRESENTATION_CONTEXT() REPRESENTATION_CONTEXT('2D SPACE',''
  ) );
#228 = PCURVE('',#158,#229);
#229 = DEFINITIONAL_REPRESENTATION('',(#230),#233);
#230 = B_SPLINE_CURVE_WITH_KNOTS('',1,(#231,#232),.UNSPECIFIED.,.F.,.F.,
  (2,2),(-5.999999999062E-07,29.0000006),.PIECEWISE_BEZIER_KNOTS.);
#231 = CARTESIAN_POINT('',(3.14159265359,-5.999999999062E-07));
#232 = CARTESIAN_POINT('',(3.14159265359,29.0000006));
#233 = ( GEOMETRIC_REPRESENTATION_CONTEXT(2) 
PARAMETRIC_REPRESENTATION_CONTEXT() REPRESENTATION_CONTEXT('2D SPACE',''
  ) );
#234 = ORIENTED_EDGE('',*,*,#235,.T.);
#235 = EDGE_CURVE('',#215,#144,#236,.T.);
#236 = SURFACE_CURVE('',#237,(#242,#253),.PCURVE_S1.);
#237 = CIRCLE('',#238,2.75);
#238 = AXIS2_PLACEMENT_3D('',#239,#240,#241);
#239 = CARTESIAN_POINT('',(-13.,-11.5,2.553512956638E-15));
#240 = DIRECTION('',(0.,-1.,2.22044604925E-16));
#241 = DIRECTION('',(1.,0.,0.));
#242 = PCURVE('',#44,#243);
#243 = DEFINITIONAL_REPRESENTATION('',(#244),#252);
#244 = ( BOUNDED_CURVE() B_SPLINE_CURVE(2,(#245,#246,#247,#248,#249,#250
,#251),.UNSPECIFIED.,.T.,.F.) B_SPLINE_CURVE_WITH_KNOTS((1,2,2,2,2,1),(
    -2.094395102393,0.,2.094395102393,4.188790204786,6.28318530718,
8.377580409573),.UNSPECIFIED.) CURVE() GEOMETRIC_REPRESENTATION_ITEM() 
RATIONAL_B_SPLINE_CURVE((1.,0.5,1.,0.5,1.,0.5,1.)) REPRESENTATION_ITEM(
  '') );
#245 = CARTESIAN_POINT('',(13.5,10.25));
#246 = CARTESIAN_POINT('',(18.263139720814,10.25));
#247 = CARTESIAN_POINT('',(15.881569860407,6.125));
#248 = CARTESIAN_POINT('',(13.5,2.));
#249 = CARTESIAN_POINT('',(11.118430139593,6.125));
#250 = CARTESIAN_POINT('',(8.736860279186,10.25));
#251 = CARTESIAN_POINT('',(13.5,10.25));
#252 = ( GEOMETRIC_REPRESENTATION_CONTEXT(2) 
PARAMETRIC_REPRESENTATION_CONTEXT() REPRESENTATION_CONTEXT('2D SPACE',''
  ) );
#253 = PCURVE('',#254,#259);
#254 = CYLINDRICAL_SURFACE('',#255,2.75);
#255 = AXIS2_PLACEMENT_3D('',#256,#257,#258);
#256 = CARTESIAN_POINT('',(-13.,23.,-5.107025913276E-15));
#257 = DIRECTION('',(0.,-1.,2.22044604925E-16));
#258 = DIRECTION('',(1.,0.,0.));
#259 = DEFINITIONAL_REPRESENTATION('',(#260),#264);
#260 = LINE('',#261,#262);
#261 = CARTESIAN_POINT('',(0.,34.5));
#262 = VECTOR('',#263,1.);
#263 = DIRECTION('',(1.,0.));
#264 = ( GEOMETRIC_REPRESENTATION_CONTEXT(2) 
PARAMETRIC_REPRESENTATION_CONTEXT() REPRESENTATION_CONTEXT('2D SPACE',''
  ) );
#265 = ADVANCED_FACE('',(#266),#126,.T.);
#266 = FACE_BOUND('',#267,.T.);
#267 = EDGE_LOOP('',(#268,#298,#319,#320,#321,#345,#373,#402,#430,#459)
  );
#268 = ORIENTED_EDGE('',*,*,#269,.T.);
#269 = EDGE_CURVE('',#270,#272,#274,.T.);
#270 = VERTEX_POINT('',#271);
#271 = CARTESIAN_POINT('',(20.5,-11.5,13.5));
#272 = VERTEX_POINT('',#273);
#273 = CARTESIAN_POINT('',(20.5,11.5,13.5));
#274 = SURFACE_CURVE('',#275,(#279,#286),.PCURVE_S1.);
#275 = LINE('',#276,#277);
#276 = CARTESIAN_POINT('',(20.5,-11.5,13.5));
#277 = VECTOR('',#278,1.);
#278 = DIRECTION('',(-0.,1.,0.));
#279 = PCURVE('',#126,#280);
#280 = DEFINITIONAL_REPRESENTATION('',(#281),#285);
#281 = LINE('',#282,#283);
#282 = CARTESIAN_POINT('',(41.,0.));
#283 = VECTOR('',#284,1.);
#284 = DIRECTION('',(0.,1.));
#285 = ( GEOMETRIC_REPRESENTATION_CONTEXT(2) 
PARAMETRIC_REPRESENTATION_CONTEXT() REPRESENTATION_CONTEXT('2D SPACE',''
  ) );
#286 = PCURVE('',#287,#292);
#287 = PLANE('',#288);
#288 = AXIS2_PLACEMENT_3D('',#289,#290,#291);
#289 = CARTESIAN_POINT('',(20.5,-11.5,-13.5));
#290 = DIRECTION('',(1.,0.,-0.));
#291 = DIRECTION('',(0.,0.,1.));
#292 = DEFINITIONAL_REPRESENTATION('',(#293),#297);
#293 = LINE('',#294,#295);
#294 = CARTESIAN_POINT('',(27.,0.));
#295 = VECTOR('',#296,1.);
#296 = DIRECTION('',(0.,-1.));
#297 = ( GEOMETRIC_REPRESENTATION_CONTEXT(2) 
PARAMETRIC_REPRESENTATION_CONTEXT() REPRESENTATION_CONTEXT('2D SPACE',''
  ) );
#298 = ORIENTED_EDGE('',*,*,#299,.F.);
#299 = EDGE_CURVE('',#85,#272,#300,.T.);
#300 = SURFACE_CURVE('',#301,(#305,#312),.PCURVE_S1.);
#301 = LINE('',#302,#303);
#302 = CARTESIAN_POINT('',(-20.5,11.5,13.5));
#303 = VECTOR('',#304,1.);
#304 = DIRECTION('',(1.,0.,-0.));
#305 = PCURVE('',#126,#306);
#306 = DEFINITIONAL_REPRESENTATION('',(#307),#311);
#307 = LINE('',#308,#309);
#308 = CARTESIAN_POINT('',(0.,23.));
#309 = VECTOR('',#310,1.);
#310 = DIRECTION('',(1.,0.));
#311 = ( GEOMETRIC_REPRESENTATION_CONTEXT(2) 
PARAMETRIC_REPRESENTATION_CONTEXT() REPRESENTATION_CONTEXT('2D SPACE',''
  ) );
#312 = PCURVE('',#100,#313);
#313 = DEFINITIONAL_REPRESENTATION('',(#314),#318);
#314 = LINE('',#315,#316);
#315 = CARTESIAN_POINT('',(27.,0.));
#316 = VECTOR('',#317,1.);
#317 = DIRECTION('',(0.,1.));
#318 = ( GEOMETRIC_REPRESENTATION_CONTEXT(2) 
PARAMETRIC_REPRESENTATION_CONTEXT() REPRESENTATION_CONTEXT('2D SPACE',''
  ) );
#319 = ORIENTED_EDGE('',*,*,#112,.F.);
#320 = ORIENTED_EDGE('',*,*,#191,.T.);
#321 = ORIENTED_EDGE('',*,*,#322,.F.);
#322 = EDGE_CURVE('',#323,#192,#325,.T.);
#323 = VERTEX_POINT('',#324);
#324 = CARTESIAN_POINT('',(-5.5,-11.5,13.5));
#325 = SURFACE_CURVE('',#326,(#331,#338),.PCURVE_S1.);
#326 = CIRCLE('',#327,2.5);
#327 = AXIS2_PLACEMENT_3D('',#328,#329,#330);
#328 = CARTESIAN_POINT('',(-8.,-11.5,13.5));
#329 = DIRECTION('',(0.,0.,1.));
#330 = DIRECTION('',(1.,0.,-0.));
#331 = PCURVE('',#126,#332);
#332 = DEFINITIONAL_REPRESENTATION('',(#333),#337);
#333 = CIRCLE('',#334,2.5);
#334 = AXIS2_PLACEMENT_2D('',#335,#336);
#335 = CARTESIAN_POINT('',(12.5,0.));
#336 = DIRECTION('',(1.,0.));
#337 = ( GEOMETRIC_REPRESENTATION_CONTEXT(2) 
PARAMETRIC_REPRESENTATION_CONTEXT() REPRESENTATION_CONTEXT('2D SPACE',''
  ) );
#338 = PCURVE('',#158,#339);
#339 = DEFINITIONAL_REPRESENTATION('',(#340),#344);
#340 = LINE('',#341,#342);
#341 = CARTESIAN_POINT('',(0.,28.));
#342 = VECTOR('',#343,1.);
#343 = DIRECTION('',(1.,0.));
#344 = ( GEOMETRIC_REPRESENTATION_CONTEXT(2) 
PARAMETRIC_REPRESENTATION_CONTEXT() REPRESENTATION_CONTEXT('2D SPACE',''
  ) );
#345 = ORIENTED_EDGE('',*,*,#346,.T.);
#346 = EDGE_CURVE('',#323,#347,#349,.T.);
#347 = VERTEX_POINT('',#348);
#348 = CARTESIAN_POINT('',(-2.5,-11.5,13.5));
#349 = SURFACE_CURVE('',#350,(#354,#361),.PCURVE_S1.);
#350 = LINE('',#351,#352);
#351 = CARTESIAN_POINT('',(-20.5,-11.5,13.5));
#352 = VECTOR('',#353,1.);
#353 = DIRECTION('',(1.,0.,-0.));
#354 = PCURVE('',#126,#355);
#355 = DEFINITIONAL_REPRESENTATION('',(#356),#360);
#356 = LINE('',#357,#358);
#357 = CARTESIAN_POINT('',(0.,0.));
#358 = VECTOR('',#359,1.);
#359 = DIRECTION('',(1.,0.));
#360 = ( GEOMETRIC_REPRESENTATION_CONTEXT(2) 
PARAMETRIC_REPRESENTATION_CONTEXT() REPRESENTATION_CONTEXT('2D SPACE',''
  ) );
#361 = PCURVE('',#362,#367);
#362 = PLANE('',#363);
#363 = AXIS2_PLACEMENT_3D('',#364,#365,#366);
#364 = CARTESIAN_POINT('',(-20.5,-11.5,-13.5));
#365 = DIRECTION('',(-0.,1.,0.));
#366 = DIRECTION('',(0.,0.,1.));
#367 = DEFINITIONAL_REPRESENTATION('',(#368),#372);
#368 = LINE('',#369,#370);
#369 = CARTESIAN_POINT('',(27.,0.));
#370 = VECTOR('',#371,1.);
#371 = DIRECTION('',(0.,1.));
#372 = ( GEOMETRIC_REPRESENTATION_CONTEXT(2) 
PARAMETRIC_REPRESENTATION_CONTEXT() REPRESENTATION_CONTEXT('2D SPACE',''
  ) );
#373 = ORIENTED_EDGE('',*,*,#374,.F.);
#374 = EDGE_CURVE('',#375,#347,#377,.T.);
#375 = VERTEX_POINT('',#376);
#376 = CARTESIAN_POINT('',(2.5,-11.5,13.5));
#377 = SURFACE_CURVE('',#378,(#383,#390),.PCURVE_S1.);
#378 = CIRCLE('',#379,2.5);
#379 = AXIS2_PLACEMENT_3D('',#380,#381,#382);
#380 = CARTESIAN_POINT('',(0.,-11.5,13.5));
#381 = DIRECTION('',(0.,0.,1.));
#382 = DIRECTION('',(1.,0.,-0.));
#383 = PCURVE('',#126,#384);
#384 = DEFINITIONAL_REPRESENTATION('',(#385),#389);
#385 = CIRCLE('',#386,2.5);
#386 = AXIS2_PLACEMENT_2D('',#387,#388);
#387 = CARTESIAN_POINT('',(20.5,0.));
#388 = DIRECTION('',(1.,0.));
#389 = ( GEOMETRIC_REPRESENTATION_CONTEXT(2) 
PARAMETRIC_REPRESENTATION_CONTEXT() REPRESENTATION_CONTEXT('2D SPACE',''
  ) );
#390 = PCURVE('',#391,#396);
#391 = CYLINDRICAL_SURFACE('',#392,2.5);
#392 = AXIS2_PLACEMENT_3D('',#393,#394,#395);
#393 = CARTESIAN_POINT('',(0.,-11.5,-14.5));
#394 = DIRECTION('',(0.,0.,1.));
#395 = DIRECTION('',(1.,0.,-0.));
#396 = DEFINITIONAL_REPRESENTATION('',(#397),#401);
#397 = LINE('',#398,#399);
#398 = CARTESIAN_POINT('',(0.,28.));
#399 = VECTOR('',#400,1.);
#400 = DIRECTION('',(1.,0.));
#401 = ( GEOMETRIC_REPRESENTATION_CONTEXT(2) 
PARAMETRIC_REPRESENTATION_CONTEXT() REPRESENTATION_CONTEXT('2D SPACE',''
  ) );
#402 = ORIENTED_EDGE('',*,*,#403,.T.);
#403 = EDGE_CURVE('',#375,#404,#406,.T.);
#404 = VERTEX_POINT('',#405);
#405 = CARTESIAN_POINT('',(5.5,-11.5,13.5));
#406 = SURFACE_CURVE('',#407,(#411,#418),.PCURVE_S1.);
#407 = LINE('',#408,#409);
#408 = CARTESIAN_POINT('',(-20.5,-11.5,13.5));
#409 = VECTOR('',#410,1.);
#410 = DIRECTION('',(1.,0.,-0.));
#411 = PCURVE('',#126,#412);
#412 = DEFINITIONAL_REPRESENTATION('',(#413),#417);
#413 = LINE('',#414,#415);
#414 = CARTESIAN_POINT('',(0.,0.));
#415 = VECTOR('',#416,1.);
#416 = DIRECTION('',(1.,0.));
#417 = ( GEOMETRIC_REPRESENTATION_CONTEXT(2) 
PARAMETRIC_REPRESENTATION_CONTEXT() REPRESENTATION_CONTEXT('2D SPACE',''
  ) );
#418 = PCURVE('',#419,#424);
#419 = PLANE('',#420);
#420 = AXIS2_PLACEMENT_3D('',#421,#422,#423);
#421 = CARTESIAN_POINT('',(-20.5,-11.5,-13.5));
#422 = DIRECTION('',(-0.,1.,0.));
#423 = DIRECTION('',(0.,0.,1.));
#424 = DEFINITIONAL_REPRESENTATION('',(#425),#429);
#425 = LINE('',#426,#427);
#426 = CARTESIAN_POINT('',(27.,0.));
#427 = VECTOR('',#428,1.);
#428 = DIRECTION('',(0.,1.));
#429 = ( GEOMETRIC_REPRESENTATION_CONTEXT(2) 
PARAMETRIC_REPRESENTATION_CONTEXT() REPRESENTATION_CONTEXT('2D SPACE',''
  ) );
#430 = ORIENTED_EDGE('',*,*,#431,.F.);
#431 = EDGE_CURVE('',#432,#404,#434,.T.);
#432 = VERTEX_POINT('',#433);
#433 = CARTESIAN_POINT('',(10.5,-11.5,13.5));
#434 = SURFACE_CURVE('',#435,(#440,#447),.PCURVE_S1.);
#435 = CIRCLE('',#436,2.5);
#436 = AXIS2_PLACEMENT_3D('',#437,#438,#439);
#437 = CARTESIAN_POINT('',(8.,-11.5,13.5));
#438 = DIRECTION('',(0.,0.,1.));
#439 = DIRECTION('',(1.,0.,-0.));
#440 = PCURVE('',#126,#441);
#441 = DEFINITIONAL_REPRESENTATION('',(#442),#446);
#442 = CIRCLE('',#443,2.5);
#443 = AXIS2_PLACEMENT_2D('',#444,#445);
#444 = CARTESIAN_POINT('',(28.5,0.));
#445 = DIRECTION('',(1.,0.));
#446 = ( GEOMETRIC_REPRESENTATION_CONTEXT(2) 
PARAMETRIC_REPRESENTATION_CONTEXT() REPRESENTATION_CONTEXT('2D SPACE',''
  ) );
#447 = PCURVE('',#448,#453);
#448 = CYLINDRICAL_SURFACE('',#449,2.5);
#449 = AXIS2_PLACEMENT_3D('',#450,#451,#452);
#450 = CARTESIAN_POINT('',(8.,-11.5,-14.5));
#451 = DIRECTION('',(0.,0.,1.));
#452 = DIRECTION('',(1.,0.,-0.));
#453 = DEFINITIONAL_REPRESENTATION('',(#454),#458);
#454 = LINE('',#455,#456);
#455 = CARTESIAN_POINT('',(0.,28.));
#456 = VECTOR('',#457,1.);
#457 = DIRECTION('',(1.,0.));
#458 = ( GEOMETRIC_REPRESENTATION_CONTEXT(2) 
PARAMETRIC_REPRESENTATION_CONTEXT() REPRESENTATION_CONTEXT('2D SPACE',''
  ) );
#459 = ORIENTED_EDGE('',*,*,#460,.T.);
#460 = EDGE_CURVE('',#432,#270,#461,.T.);
#461 = SURFACE_CURVE('',#462,(#466,#473),.PCURVE_S1.);
#462 = LINE('',#463,#464);
#463 = CARTESIAN_POINT('',(-20.5,-11.5,13.5));
#464 = VECTOR('',#465,1.);
#465 = DIRECTION('',(1.,0.,-0.));
#466 = PCURVE('',#126,#467);
#467 = DEFINITIONAL_REPRESENTATION('',(#468),#472);
#468 = LINE('',#469,#470);
#469 = CARTESIAN_POINT('',(0.,0.));
#470 = VECTOR('',#471,1.);
#471 = DIRECTION('',(1.,0.));
#472 = ( GEOMETRIC_REPRESENTATION_CONTEXT(2) 
PARAMETRIC_REPRESENTATION_CONTEXT() REPRESENTATION_CONTEXT('2D SPACE',''
  ) );
#473 = PCURVE('',#474,#479);
#474 = PLANE('',#475);
#475 = AXIS2_PLACEMENT_3D('',#476,#477,#478);
#476 = CARTESIAN_POINT('',(-20.5,-11.5,-13.5));
#477 = DIRECTION('',(-0.,1.,0.));
#478 = DIRECTION('',(0.,0.,1.));
#479 = DEFINITIONAL_REPRESENTATION('',(#480),#484);
#480 = LINE('',#481,#482);
#481 = CARTESIAN_POINT('',(27.,0.));
#482 = VECTOR('',#483,1.);
#483 = DIRECTION('',(0.,1.));
#484 = ( GEOMETRIC_REPRESENTATION_CONTEXT(2) 
PARAMETRIC_REPRESENTATION_CONTEXT() REPRESENTATION_CONTEXT('2D SPACE',''
  ) );
#485 = ADVANCED_FACE('',(#486,#534,#564),#100,.T.);
#486 = FACE_BOUND('',#487,.T.);
#487 = EDGE_LOOP('',(#488,#511,#512,#513));
#488 = ORIENTED_EDGE('',*,*,#489,.F.);
#489 = EDGE_CURVE('',#57,#490,#492,.T.);
#490 = VERTEX_POINT('',#491);
#491 = CARTESIAN_POINT('',(20.5,11.5,-13.5));
#492 = SURFACE_CURVE('',#493,(#497,#504),.PCURVE_S1.);
#493 = LINE('',#494,#495);
#494 = CARTESIAN_POINT('',(-20.5,11.5,-13.5));
#495 = VECTOR('',#496,1.);
#496 = DIRECTION('',(1.,0.,-0.));
#497 = PCURVE('',#100,#498);
#498 = DEFINITIONAL_REPRESENTATION('',(#499),#503);
#499 = LINE('',#500,#501);
#500 = CARTESIAN_POINT('',(0.,0.));
#501 = VECTOR('',#502,1.);
#502 = DIRECTION('',(0.,1.));
#503 = ( GEOMETRIC_REPRESENTATION_CONTEXT(2) 
PARAMETRIC_REPRESENTATION_CONTEXT() REPRESENTATION_CONTEXT('2D SPACE',''
  ) );
#504 = PCURVE('',#72,#505);
#505 = DEFINITIONAL_REPRESENTATION('',(#506),#510);
#506 = LINE('',#507,#508);
#507 = CARTESIAN_POINT('',(0.,23.));
#508 = VECTOR('',#509,1.);
#509 = DIRECTION('',(1.,0.));
#510 = ( GEOMETRIC_REPRESENTATION_CONTEXT(2) 
PARAMETRIC_REPRESENTATION_CONTEXT() REPRESENTATION_CONTEXT('2D SPACE',''
  ) );
#511 = ORIENTED_EDGE('',*,*,#84,.T.);
#512 = ORIENTED_EDGE('',*,*,#299,.T.);
#513 = ORIENTED_EDGE('',*,*,#514,.F.);
#514 = EDGE_CURVE('',#490,#272,#515,.T.);
#515 = SURFACE_CURVE('',#516,(#520,#527),.PCURVE_S1.);
#516 = LINE('',#517,#518);
#517 = CARTESIAN_POINT('',(20.5,11.5,-13.5));
#518 = VECTOR('',#519,1.);
#519 = DIRECTION('',(0.,0.,1.));
#520 = PCURVE('',#100,#521);
#521 = DEFINITIONAL_REPRESENTATION('',(#522),#526);
#522 = LINE('',#523,#524);
#523 = CARTESIAN_POINT('',(0.,41.));
#524 = VECTOR('',#525,1.);
#525 = DIRECTION('',(1.,0.));
#526 = ( GEOMETRIC_REPRESENTATION_CONTEXT(2) 
PARAMETRIC_REPRESENTATION_CONTEXT() REPRESENTATION_CONTEXT('2D SPACE',''
  ) );
#527 = PCURVE('',#287,#528);
#528 = DEFINITIONAL_REPRESENTATION('',(#529),#533);
#529 = LINE('',#530,#531);
#530 = CARTESIAN_POINT('',(0.,-23.));
#531 = VECTOR('',#532,1.);
#532 = DIRECTION('',(1.,0.));
#533 = ( GEOMETRIC_REPRESENTATION_CONTEXT(2) 
PARAMETRIC_REPRESENTATION_CONTEXT() REPRESENTATION_CONTEXT('2D SPACE',''
  ) );
#534 = FACE_BOUND('',#535,.T.);
#535 = EDGE_LOOP('',(#536));
#536 = ORIENTED_EDGE('',*,*,#537,.T.);
#537 = EDGE_CURVE('',#538,#538,#540,.T.);
#538 = VERTEX_POINT('',#539);
#539 = CARTESIAN_POINT('',(-10.25,11.5,-3.227068696169E-15));
#540 = SURFACE_CURVE('',#541,(#546,#557),.PCURVE_S1.);
#541 = CIRCLE('',#542,2.75);
#542 = AXIS2_PLACEMENT_3D('',#543,#544,#545);
#543 = CARTESIAN_POINT('',(-13.,11.5,-2.553512956638E-15));
#544 = DIRECTION('',(0.,-1.,2.22044604925E-16));
#545 = DIRECTION('',(1.,0.,0.));
#546 = PCURVE('',#100,#547);
#547 = DEFINITIONAL_REPRESENTATION('',(#548),#556);
#548 = ( BOUNDED_CURVE() B_SPLINE_CURVE(2,(#549,#550,#551,#552,#553,#554
,#555),.UNSPECIFIED.,.T.,.F.) B_SPLINE_CURVE_WITH_KNOTS((1,2,2,2,2,1),(
    -2.094395102393,0.,2.094395102393,4.188790204786,6.28318530718,
8.377580409573),.UNSPECIFIED.) CURVE() GEOMETRIC_REPRESENTATION_ITEM() 
RATIONAL_B_SPLINE_CURVE((1.,0.5,1.,0.5,1.,0.5,1.)) REPRESENTATION_ITEM(
  '') );
#549 = CARTESIAN_POINT('',(13.5,10.25));
#550 = CARTESIAN_POINT('',(18.263139720814,10.25));
#551 = CARTESIAN_POINT('',(15.881569860407,6.125));
#552 = CARTESIAN_POINT('',(13.5,2.));
#553 = CARTESIAN_POINT('',(11.118430139593,6.125));
#554 = CARTESIAN_POINT('',(8.736860279186,10.25));
#555 = CARTESIAN_POINT('',(13.5,10.25));
#556 = ( GEOMETRIC_REPRESENTATION_CONTEXT(2) 
PARAMETRIC_REPRESENTATION_CONTEXT() REPRESENTATION_CONTEXT('2D SPACE',''
  ) );
#557 = PCURVE('',#254,#558);
#558 = DEFINITIONAL_REPRESENTATION('',(#559),#563);
#559 = LINE('',#560,#561);
#560 = CARTESIAN_POINT('',(0.,11.5));
#561 = VECTOR('',#562,1.);
#562 = DIRECTION('',(1.,0.));
#563 = ( GEOMETRIC_REPRESENTATION_CONTEXT(2) 
PARAMETRIC_REPRESENTATION_CONTEXT() REPRESENTATION_CONTEXT('2D SPACE',''
  ) );
#564 = FACE_BOUND('',#565,.T.);
#565 = EDGE_LOOP('',(#566));
#566 = ORIENTED_EDGE('',*,*,#567,.T.);
#567 = EDGE_CURVE('',#568,#568,#570,.T.);
#568 = VERTEX_POINT('',#569);
#569 = CARTESIAN_POINT('',(15.75,11.5,-3.227068696169E-15));
#570 = SURFACE_CURVE('',#571,(#576,#587),.PCURVE_S1.);
#571 = CIRCLE('',#572,2.75);
#572 = AXIS2_PLACEMENT_3D('',#573,#574,#575);
#573 = CARTESIAN_POINT('',(13.,11.5,-2.553512956638E-15));
#574 = DIRECTION('',(0.,-1.,2.22044604925E-16));
#575 = DIRECTION('',(1.,0.,0.));
#576 = PCURVE('',#100,#577);
#577 = DEFINITIONAL_REPRESENTATION('',(#578),#586);
#578 = ( BOUNDED_CURVE() B_SPLINE_CURVE(2,(#579,#580,#581,#582,#583,#584
,#585),.UNSPECIFIED.,.T.,.F.) B_SPLINE_CURVE_WITH_KNOTS((1,2,2,2,2,1),(
    -2.094395102393,0.,2.094395102393,4.188790204786,6.28318530718,
8.377580409573),.UNSPECIFIED.) CURVE() GEOMETRIC_REPRESENTATION_ITEM() 
RATIONAL_B_SPLINE_CURVE((1.,0.5,1.,0.5,1.,0.5,1.)) REPRESENTATION_ITEM(
  '') );
#579 = CARTESIAN_POINT('',(13.5,36.25));
#580 = CARTESIAN_POINT('',(18.263139720814,36.25));
#581 = CARTESIAN_POINT('',(15.881569860407,32.125));
#582 = CARTESIAN_POINT('',(13.5,28.));
#583 = CARTESIAN_POINT('',(11.118430139593,32.125));
#584 = CARTESIAN_POINT('',(8.736860279186,36.25));
#585 = CARTESIAN_POINT('',(13.5,36.25));
#586 = ( GEOMETRIC_REPRESENTATION_CONTEXT(2) 
PARAMETRIC_REPRESENTATION_CONTEXT() REPRESENTATION_CONTEXT('2D SPACE',''
  ) );
#587 = PCURVE('',#588,#593);
#588 = CYLINDRICAL_SURFACE('',#589,2.75);
#589 = AXIS2_PLACEMENT_3D('',#590,#591,#592);
#590 = CARTESIAN_POINT('',(13.,23.,-5.107025913276E-15));
#591 = DIRECTION('',(0.,-1.,2.22044604925E-16));
#592 = DIRECTION('',(1.,0.,0.));
#593 = DEFINITIONAL_REPRESENTATION('',(#594),#598);
#594 = LINE('',#595,#596);
#595 = CARTESIAN_POINT('',(0.,11.5));
#596 = VECTOR('',#597,1.);
#597 = DIRECTION('',(1.,0.));
#598 = ( GEOMETRIC_REPRESENTATION_CONTEXT(2) 
PARAMETRIC_REPRESENTATION_CONTEXT() REPRESENTATION_CONTEXT('2D SPACE',''
  ) );
#599 = ADVANCED_FACE('',(#600),#72,.F.);
#600 = FACE_BOUND('',#601,.F.);
#601 = EDGE_LOOP('',(#602,#625,#626,#627,#628,#652,#675,#699,#722,#746)
  );
#602 = ORIENTED_EDGE('',*,*,#603,.T.);
#603 = EDGE_CURVE('',#604,#490,#606,.T.);
#604 = VERTEX_POINT('',#605);
#605 = CARTESIAN_POINT('',(20.5,-11.5,-13.5));
#606 = SURFACE_CURVE('',#607,(#611,#618),.PCURVE_S1.);
#607 = LINE('',#608,#609);
#608 = CARTESIAN_POINT('',(20.5,-11.5,-13.5));
#609 = VECTOR('',#610,1.);
#610 = DIRECTION('',(-0.,1.,0.));
#611 = PCURVE('',#72,#612);
#612 = DEFINITIONAL_REPRESENTATION('',(#613),#617);
#613 = LINE('',#614,#615);
#614 = CARTESIAN_POINT('',(41.,0.));
#615 = VECTOR('',#616,1.);
#616 = DIRECTION('',(0.,1.));
#617 = ( GEOMETRIC_REPRESENTATION_CONTEXT(2) 
PARAMETRIC_REPRESENTATION_CONTEXT() REPRESENTATION_CONTEXT('2D SPACE',''
  ) );
#618 = PCURVE('',#287,#619);
#619 = DEFINITIONAL_REPRESENTATION('',(#620),#624);
#620 = LINE('',#621,#622);
#621 = CARTESIAN_POINT('',(0.,0.));
#622 = VECTOR('',#623,1.);
#623 = DIRECTION('',(0.,-1.));
#624 = ( GEOMETRIC_REPRESENTATION_CONTEXT(2) 
PARAMETRIC_REPRESENTATION_CONTEXT() REPRESENTATION_CONTEXT('2D SPACE',''
  ) );
#625 = ORIENTED_EDGE('',*,*,#489,.F.);
#626 = ORIENTED_EDGE('',*,*,#56,.F.);
#627 = ORIENTED_EDGE('',*,*,#169,.T.);
#628 = ORIENTED_EDGE('',*,*,#629,.F.);
#629 = EDGE_CURVE('',#630,#142,#632,.T.);
#630 = VERTEX_POINT('',#631);
#631 = CARTESIAN_POINT('',(-5.5,-11.5,-13.5));
#632 = SURFACE_CURVE('',#633,(#638,#645),.PCURVE_S1.);
#633 = CIRCLE('',#634,2.5);
#634 = AXIS2_PLACEMENT_3D('',#635,#636,#637);
#635 = CARTESIAN_POINT('',(-8.,-11.5,-13.5));
#636 = DIRECTION('',(0.,0.,1.));
#637 = DIRECTION('',(1.,0.,-0.));
#638 = PCURVE('',#72,#639);
#639 = DEFINITIONAL_REPRESENTATION('',(#640),#644);
#640 = CIRCLE('',#641,2.5);
#641 = AXIS2_PLACEMENT_2D('',#642,#643);
#642 = CARTESIAN_POINT('',(12.5,0.));
#643 = DIRECTION('',(1.,0.));
#644 = ( GEOMETRIC_REPRESENTATION_CONTEXT(2) 
PARAMETRIC_REPRESENTATION_CONTEXT() REPRESENTATION_CONTEXT('2D SPACE',''
  ) );
#645 = PCURVE('',#158,#646);
#646 = DEFINITIONAL_REPRESENTATION('',(#647),#651);
#647 = LINE('',#648,#649);
#648 = CARTESIAN_POINT('',(0.,1.));
#649 = VECTOR('',#650,1.);
#650 = DIRECTION('',(1.,0.));
#651 = ( GEOMETRIC_REPRESENTATION_CONTEXT(2) 
PARAMETRIC_REPRESENTATION_CONTEXT() REPRESENTATION_CONTEXT('2D SPACE',''
  ) );
#652 = ORIENTED_EDGE('',*,*,#653,.T.);
#653 = EDGE_CURVE('',#630,#654,#656,.T.);
#654 = VERTEX_POINT('',#655);
#655 = CARTESIAN_POINT('',(-2.5,-11.5,-13.5));
#656 = SURFACE_CURVE('',#657,(#661,#668),.PCURVE_S1.);
#657 = LINE('',#658,#659);
#658 = CARTESIAN_POINT('',(-20.5,-11.5,-13.5));
#659 = VECTOR('',#660,1.);
#660 = DIRECTION('',(1.,0.,-0.));
#661 = PCURVE('',#72,#662);
#662 = DEFINITIONAL_REPRESENTATION('',(#663),#667);
#663 = LINE('',#664,#665);
#664 = CARTESIAN_POINT('',(0.,0.));
#665 = VECTOR('',#666,1.);
#666 = DIRECTION('',(1.,0.));
#667 = ( GEOMETRIC_REPRESENTATION_CONTEXT(2) 
PARAMETRIC_REPRESENTATION_CONTEXT() REPRESENTATION_CONTEXT('2D SPACE',''
  ) );
#668 = PCURVE('',#362,#669);
#669 = DEFINITIONAL_REPRESENTATION('',(#670),#674);
#670 = LINE('',#671,#672);
#671 = CARTESIAN_POINT('',(0.,0.));
#672 = VECTOR('',#673,1.);
#673 = DIRECTION('',(0.,1.));
#674 = ( GEOMETRIC_REPRESENTATION_CONTEXT(2) 
PARAMETRIC_REPRESENTATION_CONTEXT() REPRESENTATION_CONTEXT('2D SPACE',''
  ) );
#675 = ORIENTED_EDGE('',*,*,#676,.F.);
#676 = EDGE_CURVE('',#677,#654,#679,.T.);
#677 = VERTEX_POINT('',#678);
#678 = CARTESIAN_POINT('',(2.5,-11.5,-13.5));
#679 = SURFACE_CURVE('',#680,(#685,#692),.PCURVE_S1.);
#680 = CIRCLE('',#681,2.5);
#681 = AXIS2_PLACEMENT_3D('',#682,#683,#684);
#682 = CARTESIAN_POINT('',(0.,-11.5,-13.5));
#683 = DIRECTION('',(0.,0.,1.));
#684 = DIRECTION('',(1.,0.,-0.));
#685 = PCURVE('',#72,#686);
#686 = DEFINITIONAL_REPRESENTATION('',(#687),#691);
#687 = CIRCLE('',#688,2.5);
#688 = AXIS2_PLACEMENT_2D('',#689,#690);
#689 = CARTESIAN_POINT('',(20.5,0.));
#690 = DIRECTION('',(1.,0.));
#691 = ( GEOMETRIC_REPRESENTATION_CONTEXT(2) 
PARAMETRIC_REPRESENTATION_CONTEXT() REPRESENTATION_CONTEXT('2D SPACE',''
  ) );
#692 = PCURVE('',#391,#693);
#693 = DEFINITIONAL_REPRESENTATION('',(#694),#698);
#694 = LINE('',#695,#696);
#695 = CARTESIAN_POINT('',(0.,1.));
#696 = VECTOR('',#697,1.);
#697 = DIRECTION('',(1.,0.));
#698 = ( GEOMETRIC_REPRESENTATION_CONTEXT(2) 
PARAMETRIC_REPRESENTATION_CONTEXT() REPRESENTATION_CONTEXT('2D SPACE',''
  ) );
#699 = ORIENTED_EDGE('',*,*,#700,.T.);
#700 = EDGE_CURVE('',#677,#701,#703,.T.);
#701 = VERTEX_POINT('',#702);
#702 = CARTESIAN_POINT('',(5.5,-11.5,-13.5));
#703 = SURFACE_CURVE('',#704,(#708,#715),.PCURVE_S1.);
#704 = LINE('',#705,#706);
#705 = CARTESIAN_POINT('',(-20.5,-11.5,-13.5));
#706 = VECTOR('',#707,1.);
#707 = DIRECTION('',(1.,0.,-0.));
#708 = PCURVE('',#72,#709);
#709 = DEFINITIONAL_REPRESENTATION('',(#710),#714);
#710 = LINE('',#711,#712);
#711 = CARTESIAN_POINT('',(0.,0.));
#712 = VECTOR('',#713,1.);
#713 = DIRECTION('',(1.,0.));
#714 = ( GEOMETRIC_REPRESENTATION_CONTEXT(2) 
PARAMETRIC_REPRESENTATION_CONTEXT() REPRESENTATION_CONTEXT('2D SPACE',''
  ) );
#715 = PCURVE('',#419,#716);
#716 = DEFINITIONAL_REPRESENTATION('',(#717),#721);
#717 = LINE('',#718,#719);
#718 = CARTESIAN_POINT('',(0.,0.));
#719 = VECTOR('',#720,1.);
#720 = DIRECTION('',(0.,1.));
#721 = ( GEOMETRIC_REPRESENTATION_CONTEXT(2) 
PARAMETRIC_REPRESENTATION_CONTEXT() REPRESENTATION_CONTEXT('2D SPACE',''
  ) );
#722 = ORIENTED_EDGE('',*,*,#723,.F.);
#723 = EDGE_CURVE('',#724,#701,#726,.T.);
#724 = VERTEX_POINT('',#725);
#725 = CARTESIAN_POINT('',(10.5,-11.5,-13.5));
#726 = SURFACE_CURVE('',#727,(#732,#739),.PCURVE_S1.);
#727 = CIRCLE('',#728,2.5);
#728 = AXIS2_PLACEMENT_3D('',#729,#730,#731);
#729 = CARTESIAN_POINT('',(8.,-11.5,-13.5));
#730 = DIRECTION('',(0.,0.,1.));
#731 = DIRECTION('',(1.,0.,-0.));
#732 = PCURVE('',#72,#733);
#733 = DEFINITIONAL_REPRESENTATION('',(#734),#738);
#734 = CIRCLE('',#735,2.5);
#735 = AXIS2_PLACEMENT_2D('',#736,#737);
#736 = CARTESIAN_POINT('',(28.5,0.));
#737 = DIRECTION('',(1.,0.));
#738 = ( GEOMETRIC_REPRESENTATION_CONTEXT(2) 
PARAMETRIC_REPRESENTATION_CONTEXT() REPRESENTATION_CONTEXT('2D SPACE',''
  ) );
#739 = PCURVE('',#448,#740);
#740 = DEFINITIONAL_REPRESENTATION('',(#741),#745);
#741 = LINE('',#742,#743);
#742 = CARTESIAN_POINT('',(0.,1.));
#743 = VECTOR('',#744,1.);
#744 = DIRECTION('',(1.,0.));
#745 = ( GEOMETRIC_REPRESENTATION_CONTEXT(2) 
PARAMETRIC_REPRESENTATION_CONTEXT() REPRESENTATION_CONTEXT('2D SPACE',''
  ) );
#746 = ORIENTED_EDGE('',*,*,#747,.T.);
#747 = EDGE_CURVE('',#724,#604,#748,.T.);
#748 = SURFACE_CURVE('',#749,(#753,#760),.PCURVE_S1.);
#749 = LINE('',#750,#751);
#750 = CARTESIAN_POINT('',(-20.5,-11.5,-13.5));
#751 = VECTOR('',#752,1.);
#752 = DIRECTION('',(1.,0.,-0.));
#753 = PCURVE('',#72,#754);
#754 = DEFINITIONAL_REPRESENTATION('',(#755),#759);
#755 = LINE('',#756,#757);
#756 = CARTESIAN_POINT('',(0.,0.));
#757 = VECTOR('',#758,1.);
#758 = DIRECTION('',(1.,0.));
#759 = ( GEOMETRIC_REPRESENTATION_CONTEXT(2) 
PARAMETRIC_REPRESENTATION_CONTEXT() REPRESENTATION_CONTEXT('2D SPACE',''
  ) );
#760 = PCURVE('',#474,#761);
#761 = DEFINITIONAL_REPRESENTATION('',(#762),#766);
#762 = LINE('',#763,#764);
#763 = CARTESIAN_POINT('',(0.,0.));
#764 = VECTOR('',#765,1.);
#765 = DIRECTION('',(0.,1.));
#766 = ( GEOMETRIC_REPRESENTATION_CONTEXT(2) 
PARAMETRIC_REPRESENTATION_CONTEXT() REPRESENTATION_CONTEXT('2D SPACE',''
  ) );
#767 = ADVANCED_FACE('',(#768),#158,.F.);
#768 = FACE_BOUND('',#769,.F.);
#769 = EDGE_LOOP('',(#770,#771,#792,#793,#794,#919,#1042));
#770 = ORIENTED_EDGE('',*,*,#322,.F.);
#771 = ORIENTED_EDGE('',*,*,#772,.F.);
#772 = EDGE_CURVE('',#630,#323,#773,.T.);
#773 = SURFACE_CURVE('',#774,(#778,#785),.PCURVE_S1.);
#774 = LINE('',#775,#776);
#775 = CARTESIAN_POINT('',(-5.5,-11.5,-14.5));
#776 = VECTOR('',#777,1.);
#777 = DIRECTION('',(0.,0.,1.));
#778 = PCURVE('',#158,#779);
#779 = DEFINITIONAL_REPRESENTATION('',(#780),#784);
#780 = LINE('',#781,#782);
#781 = CARTESIAN_POINT('',(0.,-0.));
#782 = VECTOR('',#783,1.);
#783 = DIRECTION('',(0.,1.));
#784 = ( GEOMETRIC_REPRESENTATION_CONTEXT(2) 
PARAMETRIC_REPRESENTATION_CONTEXT() REPRESENTATION_CONTEXT('2D SPACE',''
  ) );
#785 = PCURVE('',#362,#786);
#786 = DEFINITIONAL_REPRESENTATION('',(#787),#791);
#787 = LINE('',#788,#789);
#788 = CARTESIAN_POINT('',(-1.,15.));
#789 = VECTOR('',#790,1.);
#790 = DIRECTION('',(1.,0.));
#791 = ( GEOMETRIC_REPRESENTATION_CONTEXT(2) 
PARAMETRIC_REPRESENTATION_CONTEXT() REPRESENTATION_CONTEXT('2D SPACE',''
  ) );
#792 = ORIENTED_EDGE('',*,*,#629,.T.);
#793 = ORIENTED_EDGE('',*,*,#141,.T.);
#794 = ORIENTED_EDGE('',*,*,#795,.F.);
#795 = EDGE_CURVE('',#796,#144,#798,.T.);
#796 = VERTEX_POINT('',#797);
#797 = CARTESIAN_POINT('',(-10.25,-10.41027526411,1.63798971865E-15));
#798 = SURFACE_CURVE('',#799,(#837,#878),.PCURVE_S1.);
#799 = B_SPLINE_CURVE_WITH_KNOTS('',6,(#800,#801,#802,#803,#804,#805,
    #806,#807,#808,#809,#810,#811,#812,#813,#814,#815,#816,#817,#818,
    #819,#820,#821,#822,#823,#824,#825,#826,#827,#828,#829,#830,#831,
    #832,#833,#834,#835,#836),.UNSPECIFIED.,.F.,.F.,(7,5,5,5,5,5,5,7),(
    0.,0.312200667946,0.41226194734,0.473892256868,0.615078659189,
    0.799055354922,0.954152155439,1.),.UNSPECIFIED.);
#800 = CARTESIAN_POINT('',(-10.25,-10.41027526411,8.881784197001E-16));
#801 = CARTESIAN_POINT('',(-10.25,-10.41027526411,-9.282228586541E-02));
#802 = CARTESIAN_POINT('',(-10.25375972141,-10.41803830711,
    -0.185770874673));
#803 = CARTESIAN_POINT('',(-10.26129820728,-10.43360247971,
    -0.277785598402));
#804 = CARTESIAN_POINT('',(-10.27238736466,-10.45701277841,
    -0.367818235861));
#805 = CARTESIAN_POINT('',(-10.28655530057,-10.48832688796,
    -0.45486574104));
#806 = CARTESIAN_POINT('',(-10.30845284364,-10.54019159229,
    -0.564634361518));
#807 = CARTESIAN_POINT('',(-10.31401281484,-10.55359060879,
    -0.590859098419));
#808 = CARTESIAN_POINT('',(-10.31979399442,-10.56779778317,
    -0.616628982333));
#809 = CARTESIAN_POINT('',(-10.32576999365,-10.58280759088,
    -0.641906965311));
#810 = CARTESIAN_POINT('',(-10.33191198241,-10.59861161034,
    -0.666656284707));
#811 = CARTESIAN_POINT('',(-10.34205467392,-10.62541482801,
    -0.705736119259));
#812 = CARTESIAN_POINT('',(-10.34597180481,-10.63592807969,
    -0.720417438038));
#813 = CARTESIAN_POINT('',(-10.34993278947,-10.64673555252,
    -0.734875927692));
#814 = CARTESIAN_POINT('',(-10.35393010448,-10.65783399168,
    -0.749103310467));
#815 = CARTESIAN_POINT('',(-10.35795599537,-10.66921961292,
    -0.76309152267));
#816 = CARTESIAN_POINT('',(-10.37127239806,-10.70761897719,
    -0.808311859883));
#817 = CARTESIAN_POINT('',(-10.38065102455,-10.73583600747,
    -0.83849667776));
#818 = CARTESIAN_POINT('',(-10.39004186123,-10.76548471301,
    -0.867289654012));
#819 = CARTESIAN_POINT('',(-10.39934491772,-10.79649794945,
    -0.894606014602));
#820 = CARTESIAN_POINT('',(-10.40846093731,-10.82879553478,
    -0.920373249031));
#821 = CARTESIAN_POINT('',(-10.42880790259,-10.9059217486,
    -0.976009555934));
#822 = CARTESIAN_POINT('',(-10.43983870891,-10.95156711922,
    -1.004744442828));
#823 = CARTESIAN_POINT('',(-10.45018438096,-10.99902769393,
    -1.030617244073));
#824 = CARTESIAN_POINT('',(-10.45965626215,-11.04808156645,
    -1.053538145099));
#825 = CARTESIAN_POINT('',(-10.4680924259,-11.09847726521,
    -1.073443487004));
#826 = CARTESIAN_POINT('',(-10.48150406116,-11.19331290362,
    -1.104498812021));
#827 = CARTESIAN_POINT('',(-10.48681602067,-11.23745398686,
    -1.116535338343));
#828 = CARTESIAN_POINT('',(-10.49123447041,-11.2822166399,-1.12638764662
    ));
#829 = CARTESIAN_POINT('',(-10.49470516153,-11.32745458801,
    -1.134045217116));
#830 = CARTESIAN_POINT('',(-10.49719208144,-11.37301597926,
    -1.139502228475));
#831 = CARTESIAN_POINT('',(-10.49911871707,-11.43226114,-1.143719339588)
  );
#832 = CARTESIAN_POINT('',(-10.49947095033,-11.44579382418,
    -1.144489148956));
#833 = CARTESIAN_POINT('',(-10.49973540768,-11.459337916,-1.145066536067
    ));
#834 = CARTESIAN_POINT('',(-10.49991180585,-11.47288961031,
    -1.145451468593));
#835 = CARTESIAN_POINT('',(-10.50000000325,-11.4864451048,
    -1.145643930838));
#836 = CARTESIAN_POINT('',(-10.5,-11.5000006,-1.145643923739));
#837 = PCURVE('',#158,#838);
#838 = DEFINITIONAL_REPRESENTATION('',(#839),#877);
#839 = B_SPLINE_CURVE_WITH_KNOTS('',6,(#840,#841,#842,#843,#844,#845,
    #846,#847,#848,#849,#850,#851,#852,#853,#854,#855,#856,#857,#858,
    #859,#860,#861,#862,#863,#864,#865,#866,#867,#868,#869,#870,#871,
    #872,#873,#874,#875,#876),.UNSPECIFIED.,.F.,.F.,(7,5,5,5,5,5,5,7),(
    0.,0.312200667946,0.41226194734,0.473892256868,0.615078659189,
    0.799055354922,0.954152155439,1.),.UNSPECIFIED.);
#840 = CARTESIAN_POINT('',(2.690565841794,14.5));
#841 = CARTESIAN_POINT('',(2.690565841794,14.407177714135));
#842 = CARTESIAN_POINT('',(2.6940160537,14.314229125327));
#843 = CARTESIAN_POINT('',(2.70093359582,14.222214401598));
#844 = CARTESIAN_POINT('',(2.711294626561,14.132181764139));
#845 = CARTESIAN_POINT('',(2.725038224513,14.04513425896));
#846 = CARTESIAN_POINT('',(2.747557371737,13.935365638482));
#847 = CARTESIAN_POINT('',(2.753359988418,13.909140901581));
#848 = CARTESIAN_POINT('',(2.75949509985,13.883371017667));
#849 = CARTESIAN_POINT('',(2.765957063944,13.858093034689));
#850 = CARTESIAN_POINT('',(2.772739031655,13.833343715293));
#851 = CARTESIAN_POINT('',(2.784202271467,13.794263880741));
#852 = CARTESIAN_POINT('',(2.788689928123,13.779582561962));
#853 = CARTESIAN_POINT('',(2.793294012785,13.765124072308));
#854 = CARTESIAN_POINT('',(2.798012435275,13.750896689533));
#855 = CARTESIAN_POINT('',(2.80284291941,13.73690847733));
#856 = CARTESIAN_POINT('',(2.819100042194,13.691688140117));
#857 = CARTESIAN_POINT('',(2.830992984162,13.66150332224));
#858 = CARTESIAN_POINT('',(2.843431166454,13.632710345988));
#859 = CARTESIAN_POINT('',(2.856380113517,13.605393985398));
#860 = CARTESIAN_POINT('',(2.869801904979,13.579626750969));
#861 = CARTESIAN_POINT('',(2.901707896528,13.523990444066));
#862 = CARTESIAN_POINT('',(2.920487592593,13.495255557172));
#863 = CARTESIAN_POINT('',(2.939909897475,13.469382755927));
#864 = CARTESIAN_POINT('',(2.959884924901,13.446461854901));
#865 = CARTESIAN_POINT('',(2.980317078898,13.426556512996));
#866 = CARTESIAN_POINT('',(3.018628790472,13.395501187979));
#867 = CARTESIAN_POINT('',(3.036408799308,13.383464661657));
#868 = CARTESIAN_POINT('',(3.054394608387,13.37361235338));
#869 = CARTESIAN_POINT('',(3.072536395527,13.365954782884));
#870 = CARTESIAN_POINT('',(3.090783650741,13.360497771525));
#871 = CARTESIAN_POINT('',(3.114494242452,13.356280660412));
#872 = CARTESIAN_POINT('',(3.119909035087,13.355510851044));
#873 = CARTESIAN_POINT('',(3.12532753307,13.354933463933));
#874 = CARTESIAN_POINT('',(3.130748498169,13.354548531407));
#875 = CARTESIAN_POINT('',(3.136170695513,13.354356069162));
#876 = CARTESIAN_POINT('',(3.14159289359,13.354356076261));
#877 = ( GEOMETRIC_REPRESENTATION_CONTEXT(2) 
PARAMETRIC_REPRESENTATION_CONTEXT() REPRESENTATION_CONTEXT('2D SPACE',''
  ) );
#878 = PCURVE('',#254,#879);
#879 = DEFINITIONAL_REPRESENTATION('',(#880),#918);
#880 = B_SPLINE_CURVE_WITH_KNOTS('',6,(#881,#882,#883,#884,#885,#886,
    #887,#888,#889,#890,#891,#892,#893,#894,#895,#896,#897,#898,#899,
    #900,#901,#902,#903,#904,#905,#906,#907,#908,#909,#910,#911,#912,
    #913,#914,#915,#916,#917),.UNSPECIFIED.,.F.,.F.,(7,5,5,5,5,5,5,7),(
    0.,0.312200667946,0.41226194734,0.473892256868,0.615078659189,
    0.799055354922,0.954152155439,1.),.UNSPECIFIED.);
#881 = CARTESIAN_POINT('',(6.28318530718,33.410275264115));
#882 = CARTESIAN_POINT('',(6.249431748683,33.410275264115));
#883 = CARTESIAN_POINT('',(6.215632238385,33.41803830711));
#884 = CARTESIAN_POINT('',(6.182103228901,33.433602479716));
#885 = CARTESIAN_POINT('',(6.149155203517,33.45701277841));
#886 = CARTESIAN_POINT('',(6.11710528987,33.48832688796));
#887 = CARTESIAN_POINT('',(6.076402939648,33.540191592294));
#888 = CARTESIAN_POINT('',(6.066655416772,33.553590608797));
#889 = CARTESIAN_POINT('',(6.05705260659,33.567797783178));
#890 = CARTESIAN_POINT('',(6.047608115922,33.582807590889));
#891 = CARTESIAN_POINT('',(6.038335906976,33.598611610347));
#892 = CARTESIAN_POINT('',(6.023654237245,33.625414828016));
#893 = CARTESIAN_POINT('',(6.018128946719,33.635928079691));
#894 = CARTESIAN_POINT('',(6.012677764032,33.646735552527));
#895 = CARTESIAN_POINT('',(6.007304015602,33.657833991684));
#896 = CARTESIAN_POINT('',(6.002011016004,33.66921961292));
#897 = CARTESIAN_POINT('',(5.984869098011,33.707618977197));
#898 = CARTESIAN_POINT('',(5.973376463022,33.735836007478));
#899 = CARTESIAN_POINT('',(5.962365002395,33.765484713013));
#900 = CARTESIAN_POINT('',(5.951872688021,33.79649794945));
#901 = CARTESIAN_POINT('',(5.941934234945,33.82879553478));
#902 = CARTESIAN_POINT('',(5.920392355252,33.905921748604));
#903 = CARTESIAN_POINT('',(5.909201267794,33.951567119226));
#904 = CARTESIAN_POINT('',(5.899069906102,33.999027693934));
#905 = CARTESIAN_POINT('',(5.890052002312,34.048081566458));
#906 = CARTESIAN_POINT('',(5.882190637452,34.098477265212));
#907 = CARTESIAN_POINT('',(5.869889699251,34.193312903625));
#908 = CARTESIAN_POINT('',(5.865105644682,34.237453986864));
#909 = CARTESIAN_POINT('',(5.861179273758,34.282216639902));
#910 = CARTESIAN_POINT('',(5.858122040147,34.327454588017));
#911 = CARTESIAN_POINT('',(5.855941326514,34.373015979264));
#912 = CARTESIAN_POINT('',(5.854255372837,34.432261140001));
#913 = CARTESIAN_POINT('',(5.853947530518,34.44579382418));
#914 = CARTESIAN_POINT('',(5.85371659611,34.459337916));
#915 = CARTESIAN_POINT('',(5.853562623126,34.472889610314));
#916 = CARTESIAN_POINT('',(5.853485638188,34.486445104807));
#917 = CARTESIAN_POINT('',(5.853485641028,34.5000006));
#918 = ( GEOMETRIC_REPRESENTATION_CONTEXT(2) 
PARAMETRIC_REPRESENTATION_CONTEXT() REPRESENTATION_CONTEXT('2D SPACE',''
  ) );
#919 = ORIENTED_EDGE('',*,*,#920,.T.);
#920 = EDGE_CURVE('',#796,#215,#921,.T.);
#921 = SURFACE_CURVE('',#922,(#960,#1001),.PCURVE_S1.);
#922 = B_SPLINE_CURVE_WITH_KNOTS('',6,(#923,#924,#925,#926,#927,#928,
    #929,#930,#931,#932,#933,#934,#935,#936,#937,#938,#939,#940,#941,
    #942,#943,#944,#945,#946,#947,#948,#949,#950,#951,#952,#953,#954,
    #955,#956,#957,#958,#959),.UNSPECIFIED.,.F.,.F.,(7,5,5,5,5,5,5,7),(
    0.,0.312200667946,0.41226194734,0.473892256868,0.615078659189,
    0.799055354922,0.954152155439,1.),.UNSPECIFIED.);
#923 = CARTESIAN_POINT('',(-10.25,-10.41027526411,2.043951148791E-15));
#924 = CARTESIAN_POINT('',(-10.25,-10.41027526411,9.282228586537E-02));
#925 = CARTESIAN_POINT('',(-10.25375972141,-10.41803830711,
    0.185770874673));
#926 = CARTESIAN_POINT('',(-10.26129820728,-10.43360247971,
    0.277785598402));
#927 = CARTESIAN_POINT('',(-10.27238736466,-10.45701277841,
    0.367818235861));
#928 = CARTESIAN_POINT('',(-10.28655530057,-10.48832688796,0.45486574104
    ));
#929 = CARTESIAN_POINT('',(-10.30845284364,-10.54019159229,
    0.564634361518));
#930 = CARTESIAN_POINT('',(-10.31401281484,-10.55359060879,
    0.590859098419));
#931 = CARTESIAN_POINT('',(-10.31979399442,-10.56779778317,
    0.616628982333));
#932 = CARTESIAN_POINT('',(-10.32576999365,-10.58280759088,
    0.641906965311));
#933 = CARTESIAN_POINT('',(-10.33191198241,-10.59861161034,
    0.666656284707));
#934 = CARTESIAN_POINT('',(-10.34205467392,-10.62541482801,
    0.705736119259));
#935 = CARTESIAN_POINT('',(-10.34597180481,-10.63592807969,
    0.720417438038));
#936 = CARTESIAN_POINT('',(-10.34993278947,-10.64673555252,
    0.734875927692));
#937 = CARTESIAN_POINT('',(-10.35393010448,-10.65783399168,
    0.749103310467));
#938 = CARTESIAN_POINT('',(-10.35795599537,-10.66921961292,0.76309152267
    ));
#939 = CARTESIAN_POINT('',(-10.37127239806,-10.70761897719,
    0.808311859883));
#940 = CARTESIAN_POINT('',(-10.38065102455,-10.73583600747,0.83849667776
    ));
#941 = CARTESIAN_POINT('',(-10.39004186123,-10.76548471301,
    0.867289654012));
#942 = CARTESIAN_POINT('',(-10.39934491772,-10.79649794945,
    0.894606014602));
#943 = CARTESIAN_POINT('',(-10.40846093731,-10.82879553478,
    0.920373249031));
#944 = CARTESIAN_POINT('',(-10.42880790259,-10.9059217486,0.976009555934
    ));
#945 = CARTESIAN_POINT('',(-10.43983870891,-10.95156711922,
    1.004744442828));
#946 = CARTESIAN_POINT('',(-10.45018438096,-10.99902769393,
    1.030617244073));
#947 = CARTESIAN_POINT('',(-10.45965626215,-11.04808156645,
    1.053538145099));
#948 = CARTESIAN_POINT('',(-10.4680924259,-11.09847726521,1.073443487004
    ));
#949 = CARTESIAN_POINT('',(-10.48150406116,-11.19331290362,
    1.104498812021));
#950 = CARTESIAN_POINT('',(-10.48681602067,-11.23745398686,
    1.116535338343));
#951 = CARTESIAN_POINT('',(-10.49123447041,-11.2822166399,1.12638764662)
  );
#952 = CARTESIAN_POINT('',(-10.49470516153,-11.32745458801,
    1.134045217116));
#953 = CARTESIAN_POINT('',(-10.49719208144,-11.37301597926,
    1.139502228475));
#954 = CARTESIAN_POINT('',(-10.49911871707,-11.43226114,1.143719339588)
  );
#955 = CARTESIAN_POINT('',(-10.49947095033,-11.44579382418,
    1.144489148956));
#956 = CARTESIAN_POINT('',(-10.49973540768,-11.459337916,1.145066536067)
  );
#957 = CARTESIAN_POINT('',(-10.49991180585,-11.47288961031,
    1.145451468593));
#958 = CARTESIAN_POINT('',(-10.50000000325,-11.4864451048,1.145643930838
    ));
#959 = CARTESIAN_POINT('',(-10.5,-11.5000006,1.145643923739));
#960 = PCURVE('',#158,#961);
#961 = DEFINITIONAL_REPRESENTATION('',(#962),#1000);
#962 = B_SPLINE_CURVE_WITH_KNOTS('',6,(#963,#964,#965,#966,#967,#968,
    #969,#970,#971,#972,#973,#974,#975,#976,#977,#978,#979,#980,#981,
    #982,#983,#984,#985,#986,#987,#988,#989,#990,#991,#992,#993,#994,
    #995,#996,#997,#998,#999),.UNSPECIFIED.,.F.,.F.,(7,5,5,5,5,5,5,7),(
    0.,0.312200667946,0.41226194734,0.473892256868,0.615078659189,
    0.799055354922,0.954152155439,1.),.UNSPECIFIED.);
#963 = CARTESIAN_POINT('',(2.690565841794,14.5));
#964 = CARTESIAN_POINT('',(2.690565841794,14.592822285865));
#965 = CARTESIAN_POINT('',(2.6940160537,14.685770874673));
#966 = CARTESIAN_POINT('',(2.70093359582,14.777785598402));
#967 = CARTESIAN_POINT('',(2.711294626561,14.867818235861));
#968 = CARTESIAN_POINT('',(2.725038224513,14.95486574104));
#969 = CARTESIAN_POINT('',(2.747557371737,15.064634361518));
#970 = CARTESIAN_POINT('',(2.753359988418,15.090859098419));
#971 = CARTESIAN_POINT('',(2.75949509985,15.116628982333));
#972 = CARTESIAN_POINT('',(2.765957063944,15.141906965311));
#973 = CARTESIAN_POINT('',(2.772739031655,15.166656284707));
#974 = CARTESIAN_POINT('',(2.784202271467,15.205736119259));
#975 = CARTESIAN_POINT('',(2.788689928123,15.220417438038));
#976 = CARTESIAN_POINT('',(2.793294012785,15.234875927692));
#977 = CARTESIAN_POINT('',(2.798012435275,15.249103310467));
#978 = CARTESIAN_POINT('',(2.80284291941,15.26309152267));
#979 = CARTESIAN_POINT('',(2.819100042194,15.308311859883));
#980 = CARTESIAN_POINT('',(2.830992984162,15.33849667776));
#981 = CARTESIAN_POINT('',(2.843431166454,15.367289654012));
#982 = CARTESIAN_POINT('',(2.856380113517,15.394606014602));
#983 = CARTESIAN_POINT('',(2.869801904979,15.420373249031));
#984 = CARTESIAN_POINT('',(2.901707896528,15.476009555934));
#985 = CARTESIAN_POINT('',(2.920487592593,15.504744442828));
#986 = CARTESIAN_POINT('',(2.939909897475,15.530617244073));
#987 = CARTESIAN_POINT('',(2.959884924901,15.553538145099));
#988 = CARTESIAN_POINT('',(2.980317078898,15.573443487004));
#989 = CARTESIAN_POINT('',(3.018628790472,15.604498812021));
#990 = CARTESIAN_POINT('',(3.036408799308,15.616535338343));
#991 = CARTESIAN_POINT('',(3.054394608387,15.62638764662));
#992 = CARTESIAN_POINT('',(3.072536395527,15.634045217116));
#993 = CARTESIAN_POINT('',(3.090783650741,15.639502228475));
#994 = CARTESIAN_POINT('',(3.114494242452,15.643719339588));
#995 = CARTESIAN_POINT('',(3.119909035087,15.644489148956));
#996 = CARTESIAN_POINT('',(3.12532753307,15.645066536067));
#997 = CARTESIAN_POINT('',(3.130748498169,15.645451468593));
#998 = CARTESIAN_POINT('',(3.136170695513,15.645643930838));
#999 = CARTESIAN_POINT('',(3.14159289359,15.645643923739));
#1000 = ( GEOMETRIC_REPRESENTATION_CONTEXT(2) 
PARAMETRIC_REPRESENTATION_CONTEXT() REPRESENTATION_CONTEXT('2D SPACE',''
  ) );
#1001 = PCURVE('',#254,#1002);
#1002 = DEFINITIONAL_REPRESENTATION('',(#1003),#1041);
#1003 = B_SPLINE_CURVE_WITH_KNOTS('',6,(#1004,#1005,#1006,#1007,#1008,
    #1009,#1010,#1011,#1012,#1013,#1014,#1015,#1016,#1017,#1018,#1019,
    #1020,#1021,#1022,#1023,#1024,#1025,#1026,#1027,#1028,#1029,#1030,
    #1031,#1032,#1033,#1034,#1035,#1036,#1037,#1038,#1039,#1040),
  .UNSPECIFIED.,.F.,.F.,(7,5,5,5,5,5,5,7),(0.,0.312200667946,
    0.41226194734,0.473892256868,0.615078659189,0.799055354922,
    0.954152155439,1.),.UNSPECIFIED.);
#1004 = CARTESIAN_POINT('',(0.,33.410275264115));
#1005 = CARTESIAN_POINT('',(3.37535584965E-02,33.410275264115));
#1006 = CARTESIAN_POINT('',(6.755306879508E-02,33.41803830711));
#1007 = CARTESIAN_POINT('',(0.101082078279,33.433602479716));
#1008 = CARTESIAN_POINT('',(0.134030103662,33.45701277841));
#1009 = CARTESIAN_POINT('',(0.166080017309,33.48832688796));
#1010 = CARTESIAN_POINT('',(0.206782367532,33.540191592294));
#1011 = CARTESIAN_POINT('',(0.216529890407,33.553590608797));
#1012 = CARTESIAN_POINT('',(0.226132700589,33.567797783178));
#1013 = CARTESIAN_POINT('',(0.235577191258,33.582807590889));
#1014 = CARTESIAN_POINT('',(0.244849400203,33.598611610347));
#1015 = CARTESIAN_POINT('',(0.259531069935,33.625414828016));
#1016 = CARTESIAN_POINT('',(0.265056360461,33.635928079691));
#1017 = CARTESIAN_POINT('',(0.270507543148,33.646735552527));
#1018 = CARTESIAN_POINT('',(0.275881291578,33.657833991684));
#1019 = CARTESIAN_POINT('',(0.281174291175,33.66921961292));
#1020 = CARTESIAN_POINT('',(0.298316209169,33.707618977197));
#1021 = CARTESIAN_POINT('',(0.309808844158,33.735836007478));
#1022 = CARTESIAN_POINT('',(0.320820304785,33.765484713013));
#1023 = CARTESIAN_POINT('',(0.331312619159,33.79649794945));
#1024 = CARTESIAN_POINT('',(0.341251072234,33.82879553478));
#1025 = CARTESIAN_POINT('',(0.362792951928,33.905921748604));
#1026 = CARTESIAN_POINT('',(0.373984039386,33.951567119226));
#1027 = CARTESIAN_POINT('',(0.384115401078,33.999027693934));
#1028 = CARTESIAN_POINT('',(0.393133304867,34.048081566458));
#1029 = CARTESIAN_POINT('',(0.400994669727,34.098477265212));
#1030 = CARTESIAN_POINT('',(0.413295607928,34.193312903625));
#1031 = CARTESIAN_POINT('',(0.418079662498,34.237453986864));
#1032 = CARTESIAN_POINT('',(0.422006033422,34.282216639902));
#1033 = CARTESIAN_POINT('',(0.425063267033,34.327454588017));
#1034 = CARTESIAN_POINT('',(0.427243980666,34.373015979264));
#1035 = CARTESIAN_POINT('',(0.428929934342,34.432261140001));
#1036 = CARTESIAN_POINT('',(0.429237776662,34.44579382418));
#1037 = CARTESIAN_POINT('',(0.429468711069,34.459337916));
#1038 = CARTESIAN_POINT('',(0.429622684053,34.472889610314));
#1039 = CARTESIAN_POINT('',(0.429699668991,34.486445104807));
#1040 = CARTESIAN_POINT('',(0.429699666151,34.5000006));
#1041 = ( GEOMETRIC_REPRESENTATION_CONTEXT(2) 
PARAMETRIC_REPRESENTATION_CONTEXT() REPRESENTATION_CONTEXT('2D SPACE',''
  ) );
#1042 = ORIENTED_EDGE('',*,*,#214,.T.);
#1043 = ADVANCED_FACE('',(#1044),#254,.F.);
#1044 = FACE_BOUND('',#1045,.F.);
#1045 = EDGE_LOOP('',(#1046,#1047,#1048,#1069,#1070,#1071));
#1046 = ORIENTED_EDGE('',*,*,#235,.F.);
#1047 = ORIENTED_EDGE('',*,*,#920,.F.);
#1048 = ORIENTED_EDGE('',*,*,#1049,.F.);
#1049 = EDGE_CURVE('',#538,#796,#1050,.T.);
#1050 = SEAM_CURVE('',#1051,(#1055,#1062),.PCURVE_S1.);
#1051 = LINE('',#1052,#1053);
#1052 = CARTESIAN_POINT('',(-10.25,23.,-5.780581652807E-15));
#1053 = VECTOR('',#1054,1.);
#1054 = DIRECTION('',(0.,-1.,2.22044604925E-16));
#1055 = PCURVE('',#254,#1056);
#1056 = DEFINITIONAL_REPRESENTATION('',(#1057),#1061);
#1057 = LINE('',#1058,#1059);
#1058 = CARTESIAN_POINT('',(6.28318530718,-0.));
#1059 = VECTOR('',#1060,1.);
#1060 = DIRECTION('',(0.,1.));
#1061 = ( GEOMETRIC_REPRESENTATION_CONTEXT(2) 
PARAMETRIC_REPRESENTATION_CONTEXT() REPRESENTATION_CONTEXT('2D SPACE',''
  ) );
#1062 = PCURVE('',#254,#1063);
#1063 = DEFINITIONAL_REPRESENTATION('',(#1064),#1068);
#1064 = LINE('',#1065,#1066);
#1065 = CARTESIAN_POINT('',(0.,-0.));
#1066 = VECTOR('',#1067,1.);
#1067 = DIRECTION('',(0.,1.));
#1068 = ( GEOMETRIC_REPRESENTATION_CONTEXT(2) 
PARAMETRIC_REPRESENTATION_CONTEXT() REPRESENTATION_CONTEXT('2D SPACE',''
  ) );
#1069 = ORIENTED_EDGE('',*,*,#537,.T.);
#1070 = ORIENTED_EDGE('',*,*,#1049,.T.);
#1071 = ORIENTED_EDGE('',*,*,#795,.T.);
#1072 = ADVANCED_FACE('',(#1073),#287,.T.);
#1073 = FACE_BOUND('',#1074,.T.);
#1074 = EDGE_LOOP('',(#1075,#1096,#1097,#1098));
#1075 = ORIENTED_EDGE('',*,*,#1076,.F.);
#1076 = EDGE_CURVE('',#604,#270,#1077,.T.);
#1077 = SURFACE_CURVE('',#1078,(#1082,#1089),.PCURVE_S1.);
#1078 = LINE('',#1079,#1080);
#1079 = CARTESIAN_POINT('',(20.5,-11.5,-13.5));
#1080 = VECTOR('',#1081,1.);
#1081 = DIRECTION('',(0.,0.,1.));
#1082 = PCURVE('',#287,#1083);
#1083 = DEFINITIONAL_REPRESENTATION('',(#1084),#1088);
#1084 = LINE('',#1085,#1086);
#1085 = CARTESIAN_POINT('',(0.,0.));
#1086 = VECTOR('',#1087,1.);
#1087 = DIRECTION('',(1.,0.));
#1088 = ( GEOMETRIC_REPRESENTATION_CONTEXT(2) 
PARAMETRIC_REPRESENTATION_CONTEXT() REPRESENTATION_CONTEXT('2D SPACE',''
  ) );
#1089 = PCURVE('',#474,#1090);
#1090 = DEFINITIONAL_REPRESENTATION('',(#1091),#1095);
#1091 = LINE('',#1092,#1093);
#1092 = CARTESIAN_POINT('',(0.,41.));
#1093 = VECTOR('',#1094,1.);
#1094 = DIRECTION('',(1.,0.));
#1095 = ( GEOMETRIC_REPRESENTATION_CONTEXT(2) 
PARAMETRIC_REPRESENTATION_CONTEXT() REPRESENTATION_CONTEXT('2D SPACE',''
  ) );
#1096 = ORIENTED_EDGE('',*,*,#603,.T.);
#1097 = ORIENTED_EDGE('',*,*,#514,.T.);
#1098 = ORIENTED_EDGE('',*,*,#269,.F.);
#1099 = ADVANCED_FACE('',(#1100),#474,.F.);
#1100 = FACE_BOUND('',#1101,.F.);
#1101 = EDGE_LOOP('',(#1102,#1103,#1126,#1154,#1182,#1203,#1204));
#1102 = ORIENTED_EDGE('',*,*,#747,.F.);
#1103 = ORIENTED_EDGE('',*,*,#1104,.T.);
#1104 = EDGE_CURVE('',#724,#1105,#1107,.T.);
#1105 = VERTEX_POINT('',#1106);
#1106 = CARTESIAN_POINT('',(10.5,-11.5,-1.145643923739));
#1107 = SURFACE_CURVE('',#1108,(#1112,#1119),.PCURVE_S1.);
#1108 = LINE('',#1109,#1110);
#1109 = CARTESIAN_POINT('',(10.5,-11.5,-14.5));
#1110 = VECTOR('',#1111,1.);
#1111 = DIRECTION('',(0.,0.,1.));
#1112 = PCURVE('',#474,#1113);
#1113 = DEFINITIONAL_REPRESENTATION('',(#1114),#1118);
#1114 = LINE('',#1115,#1116);
#1115 = CARTESIAN_POINT('',(-1.,31.));
#1116 = VECTOR('',#1117,1.);
#1117 = DIRECTION('',(1.,0.));
#1118 = ( GEOMETRIC_REPRESENTATION_CONTEXT(2) 
PARAMETRIC_REPRESENTATION_CONTEXT() REPRESENTATION_CONTEXT('2D SPACE',''
  ) );
#1119 = PCURVE('',#448,#1120);
#1120 = DEFINITIONAL_REPRESENTATION('',(#1121),#1125);
#1121 = LINE('',#1122,#1123);
#1122 = CARTESIAN_POINT('',(0.,-0.));
#1123 = VECTOR('',#1124,1.);
#1124 = DIRECTION('',(0.,1.));
#1125 = ( GEOMETRIC_REPRESENTATION_CONTEXT(2) 
PARAMETRIC_REPRESENTATION_CONTEXT() REPRESENTATION_CONTEXT('2D SPACE',''
  ) );
#1126 = ORIENTED_EDGE('',*,*,#1127,.T.);
#1127 = EDGE_CURVE('',#1105,#1128,#1130,.T.);
#1128 = VERTEX_POINT('',#1129);
#1129 = CARTESIAN_POINT('',(15.75,-11.5,1.879957217107E-15));
#1130 = SURFACE_CURVE('',#1131,(#1136,#1147),.PCURVE_S1.);
#1131 = CIRCLE('',#1132,2.75);
#1132 = AXIS2_PLACEMENT_3D('',#1133,#1134,#1135);
#1133 = CARTESIAN_POINT('',(13.,-11.5,2.553512956638E-15));
#1134 = DIRECTION('',(0.,-1.,2.22044604925E-16));
#1135 = DIRECTION('',(1.,0.,0.));
#1136 = PCURVE('',#474,#1137);
#1137 = DEFINITIONAL_REPRESENTATION('',(#1138),#1146);
#1138 = ( BOUNDED_CURVE() B_SPLINE_CURVE(2,(#1139,#1140,#1141,#1142,
#1143,#1144,#1145),.UNSPECIFIED.,.T.,.F.) B_SPLINE_CURVE_WITH_KNOTS((1,2
    ,2,2,2,1),(-2.094395102393,0.,2.094395102393,4.188790204786,
6.28318530718,8.377580409573),.UNSPECIFIED.) CURVE() 
GEOMETRIC_REPRESENTATION_ITEM() RATIONAL_B_SPLINE_CURVE((1.,0.5,1.,0.5,
1.,0.5,1.)) REPRESENTATION_ITEM('') );
#1139 = CARTESIAN_POINT('',(13.5,36.25));
#1140 = CARTESIAN_POINT('',(18.263139720814,36.25));
#1141 = CARTESIAN_POINT('',(15.881569860407,32.125));
#1142 = CARTESIAN_POINT('',(13.5,28.));
#1143 = CARTESIAN_POINT('',(11.118430139593,32.125));
#1144 = CARTESIAN_POINT('',(8.736860279186,36.25));
#1145 = CARTESIAN_POINT('',(13.5,36.25));
#1146 = ( GEOMETRIC_REPRESENTATION_CONTEXT(2) 
PARAMETRIC_REPRESENTATION_CONTEXT() REPRESENTATION_CONTEXT('2D SPACE',''
  ) );
#1147 = PCURVE('',#588,#1148);
#1148 = DEFINITIONAL_REPRESENTATION('',(#1149),#1153);
#1149 = LINE('',#1150,#1151);
#1150 = CARTESIAN_POINT('',(0.,34.5));
#1151 = VECTOR('',#1152,1.);
#1152 = DIRECTION('',(1.,0.));
#1153 = ( GEOMETRIC_REPRESENTATION_CONTEXT(2) 
PARAMETRIC_REPRESENTATION_CONTEXT() REPRESENTATION_CONTEXT('2D SPACE',''
  ) );
#1154 = ORIENTED_EDGE('',*,*,#1155,.T.);
#1155 = EDGE_CURVE('',#1128,#1156,#1158,.T.);
#1156 = VERTEX_POINT('',#1157);
#1157 = CARTESIAN_POINT('',(10.5,-11.5,1.145643923739));
#1158 = SURFACE_CURVE('',#1159,(#1164,#1175),.PCURVE_S1.);
#1159 = CIRCLE('',#1160,2.75);
#1160 = AXIS2_PLACEMENT_3D('',#1161,#1162,#1163);
#1161 = CARTESIAN_POINT('',(13.,-11.5,2.553512956638E-15));
#1162 = DIRECTION('',(0.,-1.,2.22044604925E-16));
#1163 = DIRECTION('',(1.,0.,0.));
#1164 = PCURVE('',#474,#1165);
#1165 = DEFINITIONAL_REPRESENTATION('',(#1166),#1174);
#1166 = ( BOUNDED_CURVE() B_SPLINE_CURVE(2,(#1167,#1168,#1169,#1170,
#1171,#1172,#1173),.UNSPECIFIED.,.T.,.F.) B_SPLINE_CURVE_WITH_KNOTS((1,2
    ,2,2,2,1),(-2.094395102393,0.,2.094395102393,4.188790204786,
6.28318530718,8.377580409573),.UNSPECIFIED.) CURVE() 
GEOMETRIC_REPRESENTATION_ITEM() RATIONAL_B_SPLINE_CURVE((1.,0.5,1.,0.5,
1.,0.5,1.)) REPRESENTATION_ITEM('') );
#1167 = CARTESIAN_POINT('',(13.5,36.25));
#1168 = CARTESIAN_POINT('',(18.263139720814,36.25));
#1169 = CARTESIAN_POINT('',(15.881569860407,32.125));
#1170 = CARTESIAN_POINT('',(13.5,28.));
#1171 = CARTESIAN_POINT('',(11.118430139593,32.125));
#1172 = CARTESIAN_POINT('',(8.736860279186,36.25));
#1173 = CARTESIAN_POINT('',(13.5,36.25));
#1174 = ( GEOMETRIC_REPRESENTATION_CONTEXT(2) 
PARAMETRIC_REPRESENTATION_CONTEXT() REPRESENTATION_CONTEXT('2D SPACE',''
  ) );
#1175 = PCURVE('',#588,#1176);
#1176 = DEFINITIONAL_REPRESENTATION('',(#1177),#1181);
#1177 = LINE('',#1178,#1179);
#1178 = CARTESIAN_POINT('',(0.,34.5));
#1179 = VECTOR('',#1180,1.);
#1180 = DIRECTION('',(1.,0.));
#1181 = ( GEOMETRIC_REPRESENTATION_CONTEXT(2) 
PARAMETRIC_REPRESENTATION_CONTEXT() REPRESENTATION_CONTEXT('2D SPACE',''
  ) );
#1182 = ORIENTED_EDGE('',*,*,#1183,.T.);
#1183 = EDGE_CURVE('',#1156,#432,#1184,.T.);
#1184 = SURFACE_CURVE('',#1185,(#1189,#1196),.PCURVE_S1.);
#1185 = LINE('',#1186,#1187);
#1186 = CARTESIAN_POINT('',(10.5,-11.5,-14.5));
#1187 = VECTOR('',#1188,1.);
#1188 = DIRECTION('',(0.,0.,1.));
#1189 = PCURVE('',#474,#1190);
#1190 = DEFINITIONAL_REPRESENTATION('',(#1191),#1195);
#1191 = LINE('',#1192,#1193);
#1192 = CARTESIAN_POINT('',(-1.,31.));
#1193 = VECTOR('',#1194,1.);
#1194 = DIRECTION('',(1.,0.));
#1195 = ( GEOMETRIC_REPRESENTATION_CONTEXT(2) 
PARAMETRIC_REPRESENTATION_CONTEXT() REPRESENTATION_CONTEXT('2D SPACE',''
  ) );
#1196 = PCURVE('',#448,#1197);
#1197 = DEFINITIONAL_REPRESENTATION('',(#1198),#1202);
#1198 = LINE('',#1199,#1200);
#1199 = CARTESIAN_POINT('',(0.,-0.));
#1200 = VECTOR('',#1201,1.);
#1201 = DIRECTION('',(0.,1.));
#1202 = ( GEOMETRIC_REPRESENTATION_CONTEXT(2) 
PARAMETRIC_REPRESENTATION_CONTEXT() REPRESENTATION_CONTEXT('2D SPACE',''
  ) );
#1203 = ORIENTED_EDGE('',*,*,#460,.T.);
#1204 = ORIENTED_EDGE('',*,*,#1076,.F.);
#1205 = ADVANCED_FACE('',(#1206),#448,.F.);
#1206 = FACE_BOUND('',#1207,.F.);
#1207 = EDGE_LOOP('',(#1208,#1209,#1210,#1396,#1397,#1398));
#1208 = ORIENTED_EDGE('',*,*,#431,.F.);
#1209 = ORIENTED_EDGE('',*,*,#1183,.F.);
#1210 = ORIENTED_EDGE('',*,*,#1211,.F.);
#1211 = EDGE_CURVE('',#1105,#1156,#1212,.T.);
#1212 = SURFACE_CURVE('',#1213,(#1272,#1334),.PCURVE_S1.);
#1213 = B_SPLINE_CURVE_WITH_KNOTS('',5,(#1214,#1215,#1216,#1217,#1218,
    #1219,#1220,#1221,#1222,#1223,#1224,#1225,#1226,#1227,#1228,#1229,
    #1230,#1231,#1232,#1233,#1234,#1235,#1236,#1237,#1238,#1239,#1240,
    #1241,#1242,#1243,#1244,#1245,#1246,#1247,#1248,#1249,#1250,#1251,
    #1252,#1253,#1254,#1255,#1256,#1257,#1258,#1259,#1260,#1261,#1262,
    #1263,#1264,#1265,#1266,#1267,#1268,#1269,#1270,#1271),
  .UNSPECIFIED.,.F.,.F.,(6,4,4,4,4,4,4,4,4,4,4,4,4,4,6),(0.,
    0.100456269051,0.192349085946,0.264166862481,0.295073792249,
    0.34535506276,0.39683270919,0.5,0.60316729081,0.654644937239,
    0.70492620775,0.735833137519,0.807650914054,0.899543730949,1.),
  .UNSPECIFIED.);
#1214 = CARTESIAN_POINT('',(10.5,-11.5,-1.145643923739));
#1215 = CARTESIAN_POINT('',(10.5,-11.42873818978,-1.145643923739));
#1216 = CARTESIAN_POINT('',(10.49746092342,-11.35744981212,
    -1.140102671368));
#1217 = CARTESIAN_POINT('',(10.492378693636,-11.28681600359,
    -1.129014715472));
#1218 = CARTESIAN_POINT('',(10.484918855066,-11.21748442191,
    -1.112404940285));
#1219 = CARTESIAN_POINT('',(10.466668424224,-11.08838510758,
    -1.070147052449));
#1220 = CARTESIAN_POINT('',(10.456214591851,-11.02829608807,
    -1.045387077714));
#1221 = CARTESIAN_POINT('',(10.44427184529,-10.97035380851,
    -1.016134217717));
#1222 = CARTESIAN_POINT('',(10.431200939745,-10.91503007617,-0.982539119
    ));
#1223 = CARTESIAN_POINT('',(10.406627513145,-10.82181688801,
    -0.91537074156));
#1224 = CARTESIAN_POINT('',(10.395409627296,-10.78277227872,
    -0.883405648623));
#1225 = CARTESIAN_POINT('',(10.383952302449,-10.74577162355,
    -0.849069016682));
#1226 = CARTESIAN_POINT('',(10.372469917143,-10.71096896909,
    -0.81252629489));
#1227 = CARTESIAN_POINT('',(10.35630021924,-10.66449508683,
    -0.757397029356));
#1228 = CARTESIAN_POINT('',(10.351467930571,-10.65094000328,
    -0.740439225655));
#1229 = CARTESIAN_POINT('',(10.34668442377,-10.63782108426,
    -0.723126330248));
#1230 = CARTESIAN_POINT('',(10.341965054715,-10.62514531321,
    -0.705474867612));
#1231 = CARTESIAN_POINT('',(10.329774871353,-10.59302605464,
    -0.658262636667));
#1232 = CARTESIAN_POINT('',(10.322433627993,-10.57432137933,
    -0.628172385576));
#1233 = CARTESIAN_POINT('',(10.315363896456,-10.55682650786,
    -0.597305388081));
#1234 = CARTESIAN_POINT('',(10.308621319383,-10.54055514198,
    -0.565736560683));
#1235 = CARTESIAN_POINT('',(10.295735219911,-10.51011137958,
    -0.500580584778));
#1236 = CARTESIAN_POINT('',(10.289609691206,-10.49599863579,
    -0.466963154233));
#1237 = CARTESIAN_POINT('',(10.283928559506,-10.48317884809,
    -0.432769224321));
#1238 = CARTESIAN_POINT('',(10.278733802536,-10.47165233328,
    -0.398076852162));
#1239 = CARTESIAN_POINT('',(10.264687891268,-10.44089778128,
    -0.29258836579));
#1240 = CARTESIAN_POINT('',(10.257406947582,-10.42556810393,
    -0.220548597247));
#1241 = CARTESIAN_POINT('',(10.252467954455,-10.41537110619,
    -0.147392962193));
#1242 = CARTESIAN_POINT('',(10.25,-10.41027526411,-7.368541450395E-02));
#1243 = CARTESIAN_POINT('',(10.25,-10.41027526411,7.368541450396E-02));
#1244 = CARTESIAN_POINT('',(10.252467954455,-10.41537110619,
    0.147392962193));
#1245 = CARTESIAN_POINT('',(10.257406947582,-10.42556810393,
    0.220548597247));
#1246 = CARTESIAN_POINT('',(10.264687891268,-10.44089778128,
    0.29258836579));
#1247 = CARTESIAN_POINT('',(10.278733802536,-10.47165233328,
    0.398076852162));
#1248 = CARTESIAN_POINT('',(10.283928559506,-10.48317884809,
    0.432769224321));
#1249 = CARTESIAN_POINT('',(10.289609691206,-10.49599863579,
    0.466963154233));
#1250 = CARTESIAN_POINT('',(10.295735219911,-10.51011137958,
    0.500580584778));
#1251 = CARTESIAN_POINT('',(10.308621319383,-10.54055514198,
    0.565736560683));
#1252 = CARTESIAN_POINT('',(10.315363896456,-10.55682650786,
    0.597305388081));
#1253 = CARTESIAN_POINT('',(10.322433627993,-10.57432137933,
    0.628172385576));
#1254 = CARTESIAN_POINT('',(10.329774871353,-10.59302605464,
    0.658262636667));
#1255 = CARTESIAN_POINT('',(10.341965054715,-10.62514531321,
    0.705474867612));
#1256 = CARTESIAN_POINT('',(10.34668442377,-10.63782108426,
    0.723126330248));
#1257 = CARTESIAN_POINT('',(10.351467930571,-10.65094000328,
    0.740439225655));
#1258 = CARTESIAN_POINT('',(10.35630021924,-10.66449508683,
    0.757397029356));
#1259 = CARTESIAN_POINT('',(10.372469917143,-10.71096896909,
    0.81252629489));
#1260 = CARTESIAN_POINT('',(10.383952302449,-10.74577162355,
    0.849069016682));
#1261 = CARTESIAN_POINT('',(10.395409627296,-10.78277227872,
    0.883405648623));
#1262 = CARTESIAN_POINT('',(10.406627513145,-10.82181688801,
    0.91537074156));
#1263 = CARTESIAN_POINT('',(10.431200939745,-10.91503007617,0.982539119)
  );
#1264 = CARTESIAN_POINT('',(10.44427184529,-10.97035380851,
    1.016134217717));
#1265 = CARTESIAN_POINT('',(10.456214591851,-11.02829608807,
    1.045387077714));
#1266 = CARTESIAN_POINT('',(10.466668424224,-11.08838510758,
    1.070147052449));
#1267 = CARTESIAN_POINT('',(10.484918855066,-11.21748442191,
    1.112404940285));
#1268 = CARTESIAN_POINT('',(10.492378693636,-11.28681600359,
    1.129014715472));
#1269 = CARTESIAN_POINT('',(10.49746092342,-11.35744981212,
    1.140102671368));
#1270 = CARTESIAN_POINT('',(10.5,-11.42873818978,1.145643923739));
#1271 = CARTESIAN_POINT('',(10.5,-11.5,1.145643923739));
#1272 = PCURVE('',#448,#1273);
#1273 = DEFINITIONAL_REPRESENTATION('',(#1274),#1333);
#1274 = B_SPLINE_CURVE_WITH_KNOTS('',5,(#1275,#1276,#1277,#1278,#1279,
    #1280,#1281,#1282,#1283,#1284,#1285,#1286,#1287,#1288,#1289,#1290,
    #1291,#1292,#1293,#1294,#1295,#1296,#1297,#1298,#1299,#1300,#1301,
    #1302,#1303,#1304,#1305,#1306,#1307,#1308,#1309,#1310,#1311,#1312,
    #1313,#1314,#1315,#1316,#1317,#1318,#1319,#1320,#1321,#1322,#1323,
    #1324,#1325,#1326,#1327,#1328,#1329,#1330,#1331,#1332),
  .UNSPECIFIED.,.F.,.F.,(6,4,4,4,4,4,4,4,4,4,4,4,4,4,6),(0.,
    0.100456269051,0.192349085946,0.264166862481,0.295073792249,
    0.34535506276,0.39683270919,0.5,0.60316729081,0.654644937239,
    0.70492620775,0.735833137519,0.807650914054,0.899543730949,1.),
  .UNSPECIFIED.);
#1275 = CARTESIAN_POINT('',(0.,13.354356076261));
#1276 = CARTESIAN_POINT('',(2.850472408733E-02,13.354356076261));
#1277 = CARTESIAN_POINT('',(5.702004772701E-02,13.359897328632));
#1278 = CARTESIAN_POINT('',(8.532193855262E-02,13.370985284528));
#1279 = CARTESIAN_POINT('',(0.113199248585,13.387595059715));
#1280 = CARTESIAN_POINT('',(0.165352424805,13.429852947551));
#1281 = CARTESIAN_POINT('',(0.189736660218,13.454612922286));
#1282 = CARTESIAN_POINT('',(0.213386529802,13.483865782283));
#1283 = CARTESIAN_POINT('',(0.236117780924,13.517460881));
#1284 = CARTESIAN_POINT('',(0.274676933904,13.58462925844));
#1285 = CARTESIAN_POINT('',(0.290922649071,13.616594351377));
#1286 = CARTESIAN_POINT('',(0.306412360887,13.650930983318));
#1287 = CARTESIAN_POINT('',(0.321069629799,13.68747370511));
#1288 = CARTESIAN_POINT('',(0.340752234758,13.742602970644));
#1289 = CARTESIAN_POINT('',(0.346508335953,13.759560774345));
#1290 = CARTESIAN_POINT('',(0.352093676995,13.776873669752));
#1291 = CARTESIAN_POINT('',(0.357503895255,13.794525132388));
#1292 = CARTESIAN_POINT('',(0.371245786488,13.841737363333));
#1293 = CARTESIAN_POINT('',(0.379282794431,13.871827614424));
#1294 = CARTESIAN_POINT('',(0.3868300603,13.902694611919));
#1295 = CARTESIAN_POINT('',(0.393875098425,13.934263439317));
#1296 = CARTESIAN_POINT('',(0.407098557753,13.999419415222));
#1297 = CARTESIAN_POINT('',(0.413252236442,14.033036845767));
#1298 = CARTESIAN_POINT('',(0.418860914752,14.067230775679));
#1299 = CARTESIAN_POINT('',(0.423918081328,14.101923147838));
#1300 = CARTESIAN_POINT('',(0.437442164097,14.20741163421));
#1301 = CARTESIAN_POINT('',(0.444229800256,14.279451402753));
#1302 = CARTESIAN_POINT('',(0.448762044155,14.352607037807));
#1303 = CARTESIAN_POINT('',(0.451026811796,14.426314585496));
#1304 = CARTESIAN_POINT('',(0.451026811796,14.573685414504));
#1305 = CARTESIAN_POINT('',(0.448762044155,14.647392962193));
#1306 = CARTESIAN_POINT('',(0.444229800256,14.720548597247));
#1307 = CARTESIAN_POINT('',(0.437442164097,14.79258836579));
#1308 = CARTESIAN_POINT('',(0.423918081328,14.898076852162));
#1309 = CARTESIAN_POINT('',(0.418860914752,14.932769224321));
#1310 = CARTESIAN_POINT('',(0.413252236442,14.966963154233));
#1311 = CARTESIAN_POINT('',(0.407098557753,15.000580584778));
#1312 = CARTESIAN_POINT('',(0.393875098425,15.065736560683));
#1313 = CARTESIAN_POINT('',(0.3868300603,15.097305388081));
#1314 = CARTESIAN_POINT('',(0.379282794431,15.128172385576));
#1315 = CARTESIAN_POINT('',(0.371245786488,15.158262636667));
#1316 = CARTESIAN_POINT('',(0.357503895255,15.205474867612));
#1317 = CARTESIAN_POINT('',(0.352093676995,15.223126330248));
#1318 = CARTESIAN_POINT('',(0.346508335953,15.240439225655));
#1319 = CARTESIAN_POINT('',(0.340752234758,15.257397029356));
#1320 = CARTESIAN_POINT('',(0.321069629799,15.31252629489));
#1321 = CARTESIAN_POINT('',(0.306412360887,15.349069016682));
#1322 = CARTESIAN_POINT('',(0.290922649071,15.383405648623));
#1323 = CARTESIAN_POINT('',(0.274676933904,15.41537074156));
#1324 = CARTESIAN_POINT('',(0.236117780924,15.482539119));
#1325 = CARTESIAN_POINT('',(0.213386529802,15.516134217717));
#1326 = CARTESIAN_POINT('',(0.189736660218,15.545387077714));
#1327 = CARTESIAN_POINT('',(0.165352424805,15.570147052449));
#1328 = CARTESIAN_POINT('',(0.113199248585,15.612404940285));
#1329 = CARTESIAN_POINT('',(8.532193855264E-02,15.629014715472));
#1330 = CARTESIAN_POINT('',(5.702004772699E-02,15.640102671368));
#1331 = CARTESIAN_POINT('',(2.850472408734E-02,15.645643923739));
#1332 = CARTESIAN_POINT('',(0.,15.645643923739));
#1333 = ( GEOMETRIC_REPRESENTATION_CONTEXT(2) 
PARAMETRIC_REPRESENTATION_CONTEXT() REPRESENTATION_CONTEXT('2D SPACE',''
  ) );
#1334 = PCURVE('',#588,#1335);
#1335 = DEFINITIONAL_REPRESENTATION('',(#1336),#1395);
#1336 = B_SPLINE_CURVE_WITH_KNOTS('',5,(#1337,#1338,#1339,#1340,#1341,
    #1342,#1343,#1344,#1345,#1346,#1347,#1348,#1349,#1350,#1351,#1352,
    #1353,#1354,#1355,#1356,#1357,#1358,#1359,#1360,#1361,#1362,#1363,
    #1364,#1365,#1366,#1367,#1368,#1369,#1370,#1371,#1372,#1373,#1374,
    #1375,#1376,#1377,#1378,#1379,#1380,#1381,#1382,#1383,#1384,#1385,
    #1386,#1387,#1388,#1389,#1390,#1391,#1392,#1393,#1394),
  .UNSPECIFIED.,.F.,.F.,(6,4,4,4,4,4,4,4,4,4,4,4,4,4,6),(0.,
    0.100456269051,0.192349085946,0.264166862481,0.295073792249,
    0.34535506276,0.39683270919,0.5,0.60316729081,0.654644937239,
    0.70492620775,0.735833137519,0.807650914054,0.899543730949,1.),
  .UNSPECIFIED.);
#1337 = CARTESIAN_POINT('',(3.571292319741,34.5));
#1338 = CARTESIAN_POINT('',(3.571292319741,34.428738189782));
#1339 = CARTESIAN_POINT('',(3.569075891589,34.357449812129));
#1340 = CARTESIAN_POINT('',(3.564640383011,34.286816003595));
#1341 = CARTESIAN_POINT('',(3.558019921895,34.217484421916));
#1342 = CARTESIAN_POINT('',(3.541281556757,34.088385107587));
#1343 = CARTESIAN_POINT('',(3.531508652666,34.028296088078));
#1344 = CARTESIAN_POINT('',(3.520020179768,33.970353808514));
#1345 = CARTESIAN_POINT('',(3.506914429156,33.915030076171));
#1346 = CARTESIAN_POINT('',(3.480906307798,33.821816888015));
#1347 = CARTESIAN_POINT('',(3.468588694863,33.782772278727));
#1348 = CARTESIAN_POINT('',(3.455428242904,33.745771623558));
#1349 = CARTESIAN_POINT('',(3.441501987243,33.710968969097));
#1350 = CARTESIAN_POINT('',(3.420610468782,33.664495086839));
#1351 = CARTESIAN_POINT('',(3.41419870677,33.650940003282));
#1352 = CARTESIAN_POINT('',(3.407667513365,33.637821084269));
#1353 = CARTESIAN_POINT('',(3.401023587654,33.625145313217));
#1354 = CARTESIAN_POINT('',(3.383292463331,33.593026054647));
#1355 = CARTESIAN_POINT('',(3.372030634274,33.574321379336));
#1356 = CARTESIAN_POINT('',(3.360517201793,33.556826507865));
#1357 = CARTESIAN_POINT('',(3.348780076966,33.540555141985));
#1358 = CARTESIAN_POINT('',(3.324628071404,33.510111379586));
#1359 = CARTESIAN_POINT('',(3.312203693096,33.495998635798));
#1360 = CARTESIAN_POINT('',(3.299601151833,33.483178848095));
#1361 = CARTESIAN_POINT('',(3.286846810988,33.471652333288));
#1362 = CARTESIAN_POINT('',(3.248148813721,33.440897781286));
#1363 = CARTESIAN_POINT('',(3.221832251707,33.425568103936));
#1364 = CARTESIAN_POINT('',(3.195190085631,33.415371106199));
#1365 = CARTESIAN_POINT('',(3.168387349773,33.410275264115));
#1366 = CARTESIAN_POINT('',(3.114797957407,33.410275264115));
#1367 = CARTESIAN_POINT('',(3.087995221549,33.415371106199));
#1368 = CARTESIAN_POINT('',(3.061353055472,33.425568103936));
#1369 = CARTESIAN_POINT('',(3.035036493458,33.440897781286));
#1370 = CARTESIAN_POINT('',(2.996338496192,33.471652333288));
#1371 = CARTESIAN_POINT('',(2.983584155346,33.483178848095));
#1372 = CARTESIAN_POINT('',(2.970981614084,33.495998635798));
#1373 = CARTESIAN_POINT('',(2.958557235776,33.510111379586));
#1374 = CARTESIAN_POINT('',(2.934405230214,33.540555141985));
#1375 = CARTESIAN_POINT('',(2.922668105387,33.556826507865));
#1376 = CARTESIAN_POINT('',(2.911154672905,33.574321379336));
#1377 = CARTESIAN_POINT('',(2.899892843848,33.593026054647));
#1378 = CARTESIAN_POINT('',(2.882161719525,33.625145313217));
#1379 = CARTESIAN_POINT('',(2.875517793815,33.637821084269));
#1380 = CARTESIAN_POINT('',(2.86898660041,33.650940003282));
#1381 = CARTESIAN_POINT('',(2.862574838398,33.664495086839));
#1382 = CARTESIAN_POINT('',(2.841683319937,33.710968969097));
#1383 = CARTESIAN_POINT('',(2.827757064276,33.745771623558));
#1384 = CARTESIAN_POINT('',(2.814596612316,33.782772278727));
#1385 = CARTESIAN_POINT('',(2.802278999381,33.821816888015));
#1386 = CARTESIAN_POINT('',(2.776270878024,33.915030076171));
#1387 = CARTESIAN_POINT('',(2.763165127411,33.970353808514));
#1388 = CARTESIAN_POINT('',(2.751676654513,34.028296088078));
#1389 = CARTESIAN_POINT('',(2.741903750422,34.088385107587));
#1390 = CARTESIAN_POINT('',(2.725165385285,34.217484421916));
#1391 = CARTESIAN_POINT('',(2.718544924168,34.286816003595));
#1392 = CARTESIAN_POINT('',(2.714109415591,34.357449812129));
#1393 = CARTESIAN_POINT('',(2.711892987438,34.428738189782));
#1394 = CARTESIAN_POINT('',(2.711892987438,34.5));
#1395 = ( GEOMETRIC_REPRESENTATION_CONTEXT(2) 
PARAMETRIC_REPRESENTATION_CONTEXT() REPRESENTATION_CONTEXT('2D SPACE',''
  ) );
#1396 = ORIENTED_EDGE('',*,*,#1104,.F.);
#1397 = ORIENTED_EDGE('',*,*,#723,.T.);
#1398 = ORIENTED_EDGE('',*,*,#1399,.T.);
#1399 = EDGE_CURVE('',#701,#404,#1400,.T.);
#1400 = SURFACE_CURVE('',#1401,(#1405,#1411),.PCURVE_S1.);
#1401 = LINE('',#1402,#1403);
#1402 = CARTESIAN_POINT('',(5.5,-11.5,-14.5));
#1403 = VECTOR('',#1404,1.);
#1404 = DIRECTION('',(0.,0.,1.));
#1405 = PCURVE('',#448,#1406);
#1406 = DEFINITIONAL_REPRESENTATION('',(#1407),#1410);
#1407 = B_SPLINE_CURVE_WITH_KNOTS('',1,(#1408,#1409),.UNSPECIFIED.,.F.,
  .F.,(2,2),(-5.999999999062E-07,29.0000006),.PIECEWISE_BEZIER_KNOTS.);
#1408 = CARTESIAN_POINT('',(3.14159265359,-5.999999999062E-07));
#1409 = CARTESIAN_POINT('',(3.14159265359,29.0000006));
#1410 = ( GEOMETRIC_REPRESENTATION_CONTEXT(2) 
PARAMETRIC_REPRESENTATION_CONTEXT() REPRESENTATION_CONTEXT('2D SPACE',''
  ) );
#1411 = PCURVE('',#419,#1412);
#1412 = DEFINITIONAL_REPRESENTATION('',(#1413),#1416);
#1413 = B_SPLINE_CURVE_WITH_KNOTS('',1,(#1414,#1415),.UNSPECIFIED.,.F.,
  .F.,(2,2),(-5.999999999062E-07,29.0000006),.PIECEWISE_BEZIER_KNOTS.);
#1414 = CARTESIAN_POINT('',(-1.0000006,26.));
#1415 = CARTESIAN_POINT('',(28.0000006,26.));
#1416 = ( GEOMETRIC_REPRESENTATION_CONTEXT(2) 
PARAMETRIC_REPRESENTATION_CONTEXT() REPRESENTATION_CONTEXT('2D SPACE',''
  ) );
#1417 = ADVANCED_FACE('',(#1418),#419,.F.);
#1418 = FACE_BOUND('',#1419,.F.);
#1419 = EDGE_LOOP('',(#1420,#1421,#1422,#1443));
#1420 = ORIENTED_EDGE('',*,*,#1399,.F.);
#1421 = ORIENTED_EDGE('',*,*,#700,.F.);
#1422 = ORIENTED_EDGE('',*,*,#1423,.T.);
#1423 = EDGE_CURVE('',#677,#375,#1424,.T.);
#1424 = SURFACE_CURVE('',#1425,(#1429,#1436),.PCURVE_S1.);
#1425 = LINE('',#1426,#1427);
#1426 = CARTESIAN_POINT('',(2.5,-11.5,-14.5));
#1427 = VECTOR('',#1428,1.);
#1428 = DIRECTION('',(0.,0.,1.));
#1429 = PCURVE('',#419,#1430);
#1430 = DEFINITIONAL_REPRESENTATION('',(#1431),#1435);
#1431 = LINE('',#1432,#1433);
#1432 = CARTESIAN_POINT('',(-1.,23.));
#1433 = VECTOR('',#1434,1.);
#1434 = DIRECTION('',(1.,0.));
#1435 = ( GEOMETRIC_REPRESENTATION_CONTEXT(2) 
PARAMETRIC_REPRESENTATION_CONTEXT() REPRESENTATION_CONTEXT('2D SPACE',''
  ) );
#1436 = PCURVE('',#391,#1437);
#1437 = DEFINITIONAL_REPRESENTATION('',(#1438),#1442);
#1438 = LINE('',#1439,#1440);
#1439 = CARTESIAN_POINT('',(0.,-0.));
#1440 = VECTOR('',#1441,1.);
#1441 = DIRECTION('',(0.,1.));
#1442 = ( GEOMETRIC_REPRESENTATION_CONTEXT(2) 
PARAMETRIC_REPRESENTATION_CONTEXT() REPRESENTATION_CONTEXT('2D SPACE',''
  ) );
#1443 = ORIENTED_EDGE('',*,*,#403,.T.);
#1444 = ADVANCED_FACE('',(#1445),#391,.F.);
#1445 = FACE_BOUND('',#1446,.F.);
#1446 = EDGE_LOOP('',(#1447,#1448,#1449,#1450));
#1447 = ORIENTED_EDGE('',*,*,#374,.F.);
#1448 = ORIENTED_EDGE('',*,*,#1423,.F.);
#1449 = ORIENTED_EDGE('',*,*,#676,.T.);
#1450 = ORIENTED_EDGE('',*,*,#1451,.T.);
#1451 = EDGE_CURVE('',#654,#347,#1452,.T.);
#1452 = SURFACE_CURVE('',#1453,(#1457,#1463),.PCURVE_S1.);
#1453 = LINE('',#1454,#1455);
#1454 = CARTESIAN_POINT('',(-2.5,-11.5,-14.5));
#1455 = VECTOR('',#1456,1.);
#1456 = DIRECTION('',(0.,0.,1.));
#1457 = PCURVE('',#391,#1458);
#1458 = DEFINITIONAL_REPRESENTATION('',(#1459),#1462);
#1459 = B_SPLINE_CURVE_WITH_KNOTS('',1,(#1460,#1461),.UNSPECIFIED.,.F.,
  .F.,(2,2),(-5.999999999062E-07,29.0000006),.PIECEWISE_BEZIER_KNOTS.);
#1460 = CARTESIAN_POINT('',(3.14159265359,-5.999999999062E-07));
#1461 = CARTESIAN_POINT('',(3.14159265359,29.0000006));
#1462 = ( GEOMETRIC_REPRESENTATION_CONTEXT(2) 
PARAMETRIC_REPRESENTATION_CONTEXT() REPRESENTATION_CONTEXT('2D SPACE',''
  ) );
#1463 = PCURVE('',#362,#1464);
#1464 = DEFINITIONAL_REPRESENTATION('',(#1465),#1468);
#1465 = B_SPLINE_CURVE_WITH_KNOTS('',1,(#1466,#1467),.UNSPECIFIED.,.F.,
  .F.,(2,2),(-5.999999999062E-07,29.0000006),.PIECEWISE_BEZIER_KNOTS.);
#1466 = CARTESIAN_POINT('',(-1.0000006,18.));
#1467 = CARTESIAN_POINT('',(28.0000006,18.));
#1468 = ( GEOMETRIC_REPRESENTATION_CONTEXT(2) 
PARAMETRIC_REPRESENTATION_CONTEXT() REPRESENTATION_CONTEXT('2D SPACE',''
  ) );
#1469 = ADVANCED_FACE('',(#1470),#362,.F.);
#1470 = FACE_BOUND('',#1471,.F.);
#1471 = EDGE_LOOP('',(#1472,#1473,#1474,#1475));
#1472 = ORIENTED_EDGE('',*,*,#1451,.F.);
#1473 = ORIENTED_EDGE('',*,*,#653,.F.);
#1474 = ORIENTED_EDGE('',*,*,#772,.T.);
#1475 = ORIENTED_EDGE('',*,*,#346,.T.);
#1476 = ADVANCED_FACE('',(#1477),#588,.F.);
#1477 = FACE_BOUND('',#1478,.F.);
#1478 = EDGE_LOOP('',(#1479,#1500,#1501,#1502,#1503,#1504));
#1479 = ORIENTED_EDGE('',*,*,#1480,.T.);
#1480 = EDGE_CURVE('',#568,#1128,#1481,.T.);
#1481 = SEAM_CURVE('',#1482,(#1486,#1493),.PCURVE_S1.);
#1482 = LINE('',#1483,#1484);
#1483 = CARTESIAN_POINT('',(15.75,23.,-5.780581652807E-15));
#1484 = VECTOR('',#1485,1.);
#1485 = DIRECTION('',(0.,-1.,2.22044604925E-16));
#1486 = PCURVE('',#588,#1487);
#1487 = DEFINITIONAL_REPRESENTATION('',(#1488),#1492);
#1488 = LINE('',#1489,#1490);
#1489 = CARTESIAN_POINT('',(6.28318530718,-0.));
#1490 = VECTOR('',#1491,1.);
#1491 = DIRECTION('',(0.,1.));
#1492 = ( GEOMETRIC_REPRESENTATION_CONTEXT(2) 
PARAMETRIC_REPRESENTATION_CONTEXT() REPRESENTATION_CONTEXT('2D SPACE',''
  ) );
#1493 = PCURVE('',#588,#1494);
#1494 = DEFINITIONAL_REPRESENTATION('',(#1495),#1499);
#1495 = LINE('',#1496,#1497);
#1496 = CARTESIAN_POINT('',(0.,-0.));
#1497 = VECTOR('',#1498,1.);
#1498 = DIRECTION('',(0.,1.));
#1499 = ( GEOMETRIC_REPRESENTATION_CONTEXT(2) 
PARAMETRIC_REPRESENTATION_CONTEXT() REPRESENTATION_CONTEXT('2D SPACE',''
  ) );
#1500 = ORIENTED_EDGE('',*,*,#1127,.F.);
#1501 = ORIENTED_EDGE('',*,*,#1211,.T.);
#1502 = ORIENTED_EDGE('',*,*,#1155,.F.);
#1503 = ORIENTED_EDGE('',*,*,#1480,.F.);
#1504 = ORIENTED_EDGE('',*,*,#567,.T.);
#1505 = ( GEOMETRIC_REPRESENTATION_CONTEXT(3) 
GLOBAL_UNCERTAINTY_ASSIGNED_CONTEXT((#1509)) 
GLOBAL_UNIT_ASSIGNED_CONTEXT((#1506,#1507,#1508)) REPRESENTATION_CONTEXT
('Context #1','3D Context with UNIT and UNCERTAINTY') );
#1506 = ( LENGTH_UNIT() NAMED_UNIT(*) SI_UNIT(.MILLI.,.METRE.) );
#1507 = ( NAMED_UNIT(*) PLANE_ANGLE_UNIT() SI_UNIT($,.RADIAN.) );
#1508 = ( NAMED_UNIT(*) SI_UNIT($,.STERADIAN.) SOLID_ANGLE_UNIT() );
#1509 = UNCERTAINTY_MEASURE_WITH_UNIT(LENGTH_MEASURE(1.E-07),#1506,
  'distance_accuracy_value','confusion accuracy');
#1510 = PRODUCT_RELATED_PRODUCT_CATEGORY('part',$,(#7));
ENDSEC;
END-ISO-10303-21;
